<?xml version="1.0" encoding="UTF-8"?>
<svg version="1.1" xmlns="http://www.w3.org/2000/svg" width="3619" height="2217">
<path d="M0 0 C1.44041012 0.13042462 2.88084067 0.2606238 4.32128906 0.390625 C21.06883969 1.92480875 37.75090824 3.93437624 54.37145996 6.50744629 C55.92093442 6.74688522 57.47112682 6.98173746 59.02209473 7.21130371 C74.03332907 9.4581369 92.33663549 12.80396259 102.5 25 C104 28 104 28 104.4362793 30.87109375 C105.01651021 34.09163919 105.93905771 36.21561257 107.51953125 39.0625 C108.04087646 40.01237793 108.56222168 40.96225586 109.09936523 41.94091797 C109.66469971 42.95041504 110.23003418 43.95991211 110.8125 45 C111.39781494 46.06234863 111.98312988 47.12469727 112.58618164 48.21923828 C113.79852466 50.41919254 115.01428976 52.61726429 116.23339844 54.81347656 C118.82489096 59.48790448 121.38111588 64.18131112 123.9375 68.875 C124.42259033 69.76316406 124.90768066 70.65132813 125.4074707 71.56640625 C129.90224997 79.79986113 134.34479767 88.06113499 138.78662109 96.32324219 C143.00690872 104.16839522 147.25914907 111.99546425 151.53125 119.8125 C155.20327086 126.53317479 158.85552973 133.26434895 162.5 140 C166.65275785 147.67431131 170.81779199 155.34169791 175 163 C181.91431084 175.6627639 188.77944658 188.3520455 195.64550781 201.04101562 C197.28421512 204.06916756 198.92323159 207.09715178 200.5625 210.125 C201.10197266 211.12144531 201.64144531 212.11789062 202.19726562 213.14453125 C205.76403037 219.72866737 209.34680964 226.30388765 212.9375 232.875 C217.92531677 242.00403577 222.86070426 251.16068684 227.78662109 260.32324219 C232.00690872 268.16839522 236.25914907 275.99546425 240.53125 283.8125 C244.20327086 290.53317479 247.85552973 297.26434895 251.5 304 C255.65275785 311.67431131 259.81779199 319.34169791 264 327 C270.91431084 339.6627639 277.77944658 352.3520455 284.64550781 365.04101562 C286.28421512 368.06916756 287.92323159 371.09715178 289.5625 374.125 C290.10197266 375.12144531 290.64144531 376.11789062 291.19726562 377.14453125 C294.76403037 383.72866737 298.34680964 390.30388765 301.9375 396.875 C306.92531677 406.00403577 311.86070426 415.16068684 316.78662109 424.32324219 C321.00690872 432.16839522 325.25914907 439.99546425 329.53125 447.8125 C333.20327086 454.53317479 336.85552973 461.26434895 340.5 468 C344.65275785 475.67431131 348.81779199 483.34169791 353 491 C359.91431084 503.6627639 366.77944658 516.3520455 373.64550781 529.04101562 C375.28421512 532.06916756 376.92323159 535.09715178 378.5625 538.125 C379.10197266 539.12144531 379.64144531 540.11789062 380.19726562 541.14453125 C383.76403037 547.72866737 387.34680964 554.30388765 390.9375 560.875 C395.92531677 570.00403577 400.86070426 579.16068684 405.78662109 588.32324219 C410.00690872 596.16839522 414.25914907 603.99546425 418.53125 611.8125 C422.20327086 618.53317479 425.85552973 625.26434895 429.5 632 C433.65275785 639.67431131 437.81779199 647.34169791 442 655 C448.91431084 667.6627639 455.77944658 680.3520455 462.64550781 693.04101562 C464.28421512 696.06916756 465.92323159 699.09715178 467.5625 702.125 C468.10197266 703.12144531 468.64144531 704.11789062 469.19726562 705.14453125 C472.76403037 711.72866737 476.34680964 718.30388765 479.9375 724.875 C484.92531677 734.00403577 489.86070426 743.16068684 494.78662109 752.32324219 C499.00690872 760.16839522 503.25914907 767.99546425 507.53125 775.8125 C511.20327086 782.53317479 514.85552973 789.26434895 518.5 796 C522.65275785 803.67431131 526.81779199 811.34169791 531 819 C537.91431084 831.6627639 544.77944658 844.3520455 551.64550781 857.04101562 C553.28421512 860.06916756 554.92323159 863.09715178 556.5625 866.125 C557.10197266 867.12144531 557.64144531 868.11789062 558.19726562 869.14453125 C561.76403037 875.72866737 565.34680964 882.30388765 568.9375 888.875 C573.92531677 898.00403577 578.86070426 907.16068684 583.78662109 916.32324219 C588.00690872 924.16839522 592.25914907 931.99546425 596.53125 939.8125 C600.20327086 946.53317479 603.85552973 953.26434895 607.5 960 C611.65275785 967.67431131 615.81779199 975.34169791 620 983 C626.91431084 995.6627639 633.77944658 1008.3520455 640.64550781 1021.04101562 C642.28421512 1024.06916756 643.92323159 1027.09715178 645.5625 1030.125 C646.10197266 1031.12144531 646.64144531 1032.11789062 647.19726562 1033.14453125 C650.76403037 1039.72866737 654.34680964 1046.30388765 657.9375 1052.875 C662.92531677 1062.00403577 667.86070426 1071.16068684 672.78662109 1080.32324219 C677.00690872 1088.16839522 681.25914907 1095.99546425 685.53125 1103.8125 C689.20327086 1110.53317479 692.85552973 1117.26434895 696.5 1124 C700.65275785 1131.67431131 704.81779199 1139.34169791 709 1147 C714.81116974 1157.64248804 720.5879392 1168.30343264 726.35888672 1178.96777344 C729.07122137 1183.97925758 731.78568626 1188.98958758 734.5 1194 C737.76279053 1200.022858 741.02511518 1206.04596574 744.28515625 1212.0703125 C749.50878296 1221.7215847 754.74072607 1231.36809957 760 1241 C766.91423024 1253.66280823 773.77944636 1266.35204508 780.64550781 1279.04101562 C786.41500568 1289.70241692 792.19046796 1300.36034995 798 1311 C803.81110198 1321.64252526 809.58793903 1332.30343232 815.35888672 1342.96777344 C818.07122137 1347.97925758 820.78568626 1352.98958758 823.5 1358 C826.76279053 1364.022858 830.02511518 1370.04596574 833.28515625 1376.0703125 C838.50878296 1385.7215847 843.74072607 1395.36809957 849 1405 C855.91423024 1417.66280823 862.77944636 1430.35204508 869.64550781 1443.04101562 C875.41500568 1453.70241692 881.19046796 1464.36034995 887 1475 C892.81110198 1485.64252526 898.58793903 1496.30343232 904.35888672 1506.96777344 C907.07122137 1511.97925758 909.78568626 1516.98958758 912.5 1522 C915.76279053 1528.022858 919.02511518 1534.04596574 922.28515625 1540.0703125 C927.50878296 1549.7215847 932.74072607 1559.36809957 938 1569 C944.91423024 1581.66280823 951.77944636 1594.35204508 958.64550781 1607.04101562 C964.41500568 1617.70241692 970.19046796 1628.36034995 976 1639 C981.81110198 1649.64252526 987.58793903 1660.30343232 993.35888672 1670.96777344 C996.07122137 1675.97925758 998.78568626 1680.98958758 1001.5 1686 C1004.76279053 1692.022858 1008.02511518 1698.04596574 1011.28515625 1704.0703125 C1016.50878296 1713.7215847 1021.74072607 1723.36809957 1027 1733 C1033.91423024 1745.66280823 1040.77944636 1758.35204508 1047.64550781 1771.04101562 C1053.41500568 1781.70241692 1059.19046796 1792.36034995 1065 1803 C1070.81110198 1813.64252526 1076.58793903 1824.30343232 1082.35888672 1834.96777344 C1085.07122137 1839.97925758 1087.78568626 1844.98958758 1090.5 1850 C1093.76279053 1856.022858 1097.02511518 1862.04596574 1100.28515625 1868.0703125 C1105.53088302 1877.76253614 1110.78452388 1887.45029438 1116.0625 1897.125 C1116.54501221 1898.0104248 1117.02752441 1898.89584961 1117.5246582 1899.80810547 C1120.14349413 1904.61068798 1122.7741537 1909.40643091 1125.41796875 1914.1953125 C1125.97540771 1915.20835449 1126.53284668 1916.22139648 1127.10717773 1917.26513672 C1128.1826593 1919.21919195 1129.26147245 1921.17141813 1130.34399414 1923.12158203 C1130.82344482 1923.99411621 1131.30289551 1924.86665039 1131.796875 1925.765625 C1132.22323242 1926.53680664 1132.64958984 1927.30798828 1133.08886719 1928.10253906 C1134 1930 1134 1930 1134 1932 C1130.88551354 1930.56457818 1128.3181896 1928.82905754 1125.61328125 1926.7265625 C1124.76604492 1926.07268555 1123.91880859 1925.41880859 1123.04589844 1924.74511719 C1122.14387695 1924.04547852 1121.24185547 1923.34583984 1120.3125 1922.625 C1111.68717007 1915.99355439 1102.93750964 1909.60692045 1094.00341797 1903.40039062 C1092.06624856 1902.04630779 1090.14242997 1900.67548102 1088.22265625 1899.296875 C1068.60215335 1885.23717033 1048.36006106 1871.96139148 1028 1859 C1026.91114502 1858.30632324 1026.91114502 1858.30632324 1025.80029297 1857.59863281 C1020.21344738 1854.04455134 1014.61016157 1850.51713545 1009 1847 C1007.82655029 1846.26257568 1007.82655029 1846.26257568 1006.62939453 1845.51025391 C961.38888928 1817.11986078 914.8865225 1790.47169039 867.8059082 1765.27001953 C862.86313295 1762.62356581 857.92886382 1759.9645821 853.01416016 1757.26635742 C840.76992461 1750.54728294 828.44804203 1744.0204299 816 1737.6875 C815.08508789 1737.22086945 814.17017578 1736.75423889 813.22753906 1736.27346802 C795.54942417 1727.25864239 777.81499032 1718.35557915 760.06982422 1709.47366714 C758.01639057 1708.44570522 755.96325183 1707.41715622 753.91015625 1706.38851929 C750.6399728 1704.75045642 747.36859457 1703.11480242 744.09631348 1701.48093414 C742.32239441 1700.59475895 740.5493616 1699.70681034 738.77636719 1698.81878662 C723.92671556 1691.31561749 723.92671556 1691.31561749 708.4375 1685.31640625 C707.7801033 1685.09964737 707.1227066 1684.88288849 706.44538879 1684.65956116 C705.03492004 1684.1955654 703.62329797 1683.73506231 702.21060181 1683.27789307 C699.90976518 1682.53329828 697.61222013 1681.77918745 695.31518555 1681.02294922 C691.96945036 1679.92213455 688.6225801 1678.82487282 685.27490234 1677.72998047 C677.02969511 1675.02986868 668.7989747 1672.28616631 660.56811523 1669.54269409 C657.97248727 1668.67828007 655.3759964 1667.81651091 652.77929688 1666.95532227 C640.42864947 1662.85144573 628.11091437 1658.65349807 615.796875 1654.44140625 C601.37406109 1649.50814994 586.94180169 1644.60410586 572.49609375 1639.73828125 C571.60283764 1639.43740034 570.70958153 1639.13651943 569.78925705 1638.82652092 C565.21876302 1637.28727033 560.64803731 1635.74870909 556.07717896 1634.21054077 C546.3188612 1630.92665132 536.56174783 1627.63918575 526.8046875 1624.3515625 C525.84413767 1624.02792662 524.88358784 1623.70429073 523.89393044 1623.3708477 C505.8235666 1617.28202892 487.76075092 1611.1713023 469.70996094 1605.0246582 C457.96501771 1601.02766259 446.21050644 1597.06125034 434.44392395 1593.12849426 C428.41462084 1591.11326689 422.38726486 1589.09224209 416.36022472 1587.07025814 C411.29550161 1585.37177668 406.22823092 1583.68118841 401.15897751 1581.99627972 C398.0162235 1580.94962729 394.875993 1579.89556185 391.7364006 1578.839468 C390.26465948 1578.3461373 388.79186271 1577.85594371 387.31798172 1577.36904335 C385.29075522 1576.69888804 383.26751653 1576.01782542 381.24487305 1575.33398438 C380.1058403 1574.95383179 378.96680756 1574.5736792 377.79325867 1574.18200684 C372.76642365 1572.05483064 371.2624108 1568.90565041 368.84765625 1564.13671875 C368.55190704 1563.55770309 368.25615784 1562.97868744 367.95144653 1562.38212585 C367.31569701 1561.13664275 366.68241461 1559.88989782 366.05136108 1558.64202881 C364.36730653 1555.31341856 362.66404819 1551.99467138 360.9609375 1548.67578125 C360.61997543 1548.01058472 360.27901337 1547.34538818 359.92771912 1546.66003418 C357.10989942 1541.17788216 354.1758659 1535.76605628 351.1875 1530.375 C345.5042381 1520.09142229 340.16223408 1509.64106547 334.81430054 1499.18084717 C330.31821053 1490.39132877 325.78484016 1481.63704199 321 1473 C315.37344697 1462.84359496 310.09818544 1452.51591581 304.81347656 1442.17919922 C300.31766054 1433.39023216 295.78454171 1424.63650326 291 1416 C285.7943987 1406.60344851 280.88938034 1397.06341713 276 1387.5 C270.6526081 1377.04087751 265.23728048 1366.64117654 259.546875 1356.36328125 C254.63788148 1347.44639713 250.02332518 1338.3815638 245.38494873 1329.32214355 C241.05072032 1320.86149711 236.66754803 1312.44254462 232.0625 1304.125 C226.41745165 1293.92596307 221.119543 1283.55764848 215.81375122 1273.17974854 C211.31784387 1264.3905977 206.7846412 1255.63668284 202 1247 C196.37344697 1236.84359496 191.09818544 1226.51591581 185.81347656 1216.17919922 C181.31766054 1207.39023216 176.78454171 1198.63650326 172 1190 C166.37344697 1179.84359496 161.09818544 1169.51591581 155.81347656 1159.17919922 C151.31766054 1150.39023216 146.78454171 1141.63650326 142 1133 C136.37344697 1122.84359496 131.09818544 1112.51591581 125.81347656 1102.17919922 C121.31766054 1093.39023216 116.78454171 1084.63650326 112 1076 C106.37344697 1065.84359496 101.09818544 1055.51591581 95.81347656 1045.17919922 C91.31766054 1036.39023216 86.78454171 1027.63650326 82 1019 C76.37344697 1008.84359496 71.09818544 998.51591581 65.81347656 988.17919922 C61.31766054 979.39023216 56.78454171 970.63650326 52 962 C46.37344697 951.84359496 41.09818544 941.51591581 35.81347656 931.17919922 C31.31766054 922.39023216 26.78454171 913.63650326 22 905 C16.37344697 894.84359496 11.09818544 884.51591581 5.81347656 874.17919922 C1.31766054 865.39023216 -3.21545829 856.63650326 -8 848 C-13.62655303 837.84359496 -18.90181456 827.51591581 -24.18652344 817.17919922 C-28.68233946 808.39023216 -33.21545829 799.63650326 -38 791 C-43.62655303 780.84359496 -48.90181456 770.51591581 -54.18652344 760.17919922 C-58.68233946 751.39023216 -63.21545829 742.63650326 -68 734 C-73.62655303 723.84359496 -78.90181456 713.51591581 -84.18652344 703.17919922 C-89.11156562 693.55112875 -94.1249427 683.99253778 -99.36743164 674.5324707 C-105.06561822 664.18114124 -110.40101987 653.6390716 -115.77148438 643.11523438 C-116.51287552 641.66398826 -117.25440801 640.21281433 -117.99609375 638.76171875 C-118.34868256 638.07093231 -118.70127136 637.38014587 -119.06454468 636.66842651 C-121.33510364 632.23905493 -123.69430791 627.87524219 -126.20727539 623.57739258 C-127 622 -127 622 -127 620 C-136.29361299 620.37107666 -145.58711681 620.74475593 -154.88049603 621.12164211 C-159.19705575 621.2966176 -163.51364619 621.47073911 -167.83032227 621.64282227 C-172.00607081 621.8093203 -176.18171835 621.97817477 -180.35730934 622.14857674 C-181.94024169 622.21277663 -183.52320714 622.27616642 -185.10620689 622.33868217 C-190.07217951 622.53512418 -195.03603337 622.75789335 -200 623 C-201.26067291 623.0541507 -202.52134583 623.10830139 -203.82022095 623.16409302 C-204.97758759 623.22861664 -206.13495422 623.29314026 -207.32739258 623.35961914 C-208.33200027 623.41082413 -209.33660797 623.46202911 -210.37165833 623.51478577 C-213.34973751 624.06456452 -214.71436794 625.06921297 -217 627 C-218.64791982 627.61525954 -220.31751652 628.17424239 -222 628.6875 C-235.78980801 633.62456243 -245.31311459 643.7377451 -255.36450195 653.95288086 C-257.68276595 656.30769132 -260.01666903 658.64606565 -262.35351562 660.98242188 C-269.30562899 667.96845387 -276.1161524 674.9208919 -282.15161133 682.72729492 C-284.2737502 685.33659234 -286.59117855 687.655239 -289 690 C-293.2244512 694.14070657 -297.25885356 698.36098214 -301.125 702.83984375 C-304.68974364 706.94672549 -308.35607148 710.96345965 -312 715 C-313.50028679 716.66640851 -315.00028872 718.33307353 -316.5 720 C-318.7717129 722.52500493 -321.04435414 725.04913304 -323.3203125 727.5703125 C-326.71872932 731.33737115 -330.1081661 735.10915586 -333.4375 738.9375 C-337.09178862 743.13442081 -340.84744973 747.2365276 -344.59765625 751.34765625 C-346.56941844 753.52460996 -348.51365337 755.71838674 -350.4375 757.9375 C-353.3988351 761.3468858 -356.44152486 764.6779431 -359.5 768 C-363.14414329 771.95862186 -366.73913717 775.9517676 -370.265625 780.015625 C-373.79500714 784.05374691 -377.40634226 788.01914681 -381 792 C-382.50028679 793.66640851 -384.00028872 795.33307353 -385.5 797 C-387.7717129 799.52500493 -390.04435414 802.04913304 -392.3203125 804.5703125 C-395.69912708 808.31564256 -399.06895965 812.06518207 -402.375 815.875 C-405.82716078 819.84097076 -409.38750881 823.70517646 -412.94824219 827.57324219 C-416.10697965 831.0102442 -419.20638336 834.49021321 -422.265625 838.015625 C-425.79500714 842.05374691 -429.40634226 846.01914681 -433 850 C-434.50028679 851.66640851 -436.00028872 853.33307353 -437.5 855 C-439.7717129 857.52500493 -442.04435414 860.04913304 -444.3203125 862.5703125 C-447.69912708 866.31564256 -451.06895965 870.06518207 -454.375 873.875 C-457.82716078 877.84097076 -461.38750881 881.70517646 -464.94824219 885.57324219 C-468.10697965 889.0102442 -471.20638336 892.49021321 -474.265625 896.015625 C-477.79500714 900.05374691 -481.40634226 904.01914681 -485 908 C-486.50028679 909.66640851 -488.00028872 911.33307353 -489.5 913 C-491.7717129 915.52500493 -494.04435414 918.04913304 -496.3203125 920.5703125 C-499.71872932 924.33737115 -503.1081661 928.10915586 -506.4375 931.9375 C-518.04188436 945.24602472 -530.23433716 957.42128642 -543.984375 968.51953125 C-547.54670352 971.44968489 -551.02467961 974.46765967 -554.5 977.5 C-559.65559878 981.99525353 -564.87511636 986.38623836 -570.19140625 990.69140625 C-573.50298593 993.41344185 -576.7531 996.20143139 -580 999 C-585.01171583 1003.31820272 -590.08218579 1007.54906846 -595.21875 1011.71875 C-598.36383999 1014.29843056 -601.46472926 1016.92639674 -604.5625 1019.5625 C-609.1603844 1023.47113925 -613.81456145 1027.2923258 -618.54296875 1031.04296875 C-623.0678414 1034.64704061 -627.52825366 1038.33038895 -632 1042 C-635.6639525 1045.00333076 -639.33083057 1048.00304481 -643 1051 C-643.59973633 1051.49016602 -644.19947266 1051.98033203 -644.81738281 1052.48535156 C-652.39280578 1058.67302719 -659.99753036 1064.81453878 -667.70800781 1070.83325195 C-672.20624925 1074.35331044 -676.6394647 1077.9485822 -681.0625 1081.5625 C-686.82043935 1086.26164189 -692.64072941 1090.8523244 -698.55078125 1095.359375 C-701.82073216 1097.85423353 -705.06087977 1100.38622668 -708.30078125 1102.91992188 C-717.92396135 1110.44062826 -727.66585977 1117.79231183 -737.45458984 1125.09570312 C-740.01299625 1127.00972288 -742.56414208 1128.93303411 -745.11328125 1130.859375 C-754.93536019 1138.27518127 -764.85074179 1145.51711815 -774.9453125 1152.55712891 C-776.99497933 1153.99647432 -779.03038625 1155.45396757 -781.0625 1156.91796875 C-837.39695628 1197.39621238 -837.39695628 1197.39621238 -858 1197 C-856.32517231 1190.89664021 -853.22645628 1185.62904001 -850.1875 1180.125 C-849.0050665 1177.96361925 -847.8227789 1175.80215868 -846.640625 1173.640625 C-846.03541016 1172.53783203 -845.43019531 1171.43503906 -844.80664062 1170.29882812 C-841.99689151 1165.16837813 -839.21852626 1160.02105646 -836.4375 1154.875 C-831.81532405 1146.33674657 -827.17274473 1137.80981089 -822.51928711 1129.28857422 C-818.83194925 1122.53339546 -815.16268545 1115.76857311 -811.5 1109 C-806.85670838 1100.41928532 -802.1959884 1091.84834827 -797.51733398 1083.28686523 C-794.93790656 1078.5637616 -792.36882249 1073.83541885 -789.81640625 1069.09765625 C-784.45564711 1059.151878 -779.03650601 1049.25144107 -773.4375 1039.4375 C-768.58896615 1030.93462032 -764.00033981 1022.32605143 -759.51928711 1013.62475586 C-755.49146271 1005.84335597 -751.20548165 998.22977315 -746.85546875 990.625 C-743.0799743 983.99310521 -739.49351015 977.28423079 -736 970.5 C-731.49339827 961.74839347 -726.74272543 953.16899267 -721.85546875 944.625 C-718.0799743 937.99310521 -714.49351015 931.28423079 -711 924.5 C-706.49339827 915.74839347 -701.74272543 907.16899267 -696.85546875 898.625 C-693.0799743 891.99310521 -689.49351015 885.28423079 -686 878.5 C-681.49339827 869.74839347 -676.74272543 861.16899267 -671.85546875 852.625 C-668.0799743 845.99310521 -664.49351015 839.28423079 -661 832.5 C-656.49339827 823.74839347 -651.74272543 815.16899267 -646.85546875 806.625 C-643.07997066 799.99309882 -639.49366396 793.28415438 -636 786.5 C-632.11755791 778.96420401 -628.09091138 771.54180695 -623.875 764.1875 C-618.36529338 754.56908795 -613.15566451 744.81073463 -608 735 C-602.35227796 724.25292713 -596.58959559 713.60061588 -590.55078125 703.06640625 C-586.337636 695.68540241 -582.40864164 688.17720906 -578.51806641 680.62231445 C-574.49057051 672.84177434 -570.20502818 665.22898037 -565.85546875 657.625 C-562.07997066 650.99309882 -558.49366396 644.28415438 -555 637.5 C-551.11755791 629.96420401 -547.09091138 622.54180695 -542.875 615.1875 C-537.36529338 605.56908795 -532.15566451 595.81073463 -527 586 C-521.35227796 575.25292713 -515.58959559 564.60061588 -509.55078125 554.06640625 C-505.337636 546.68540241 -501.40864164 539.17720906 -497.51806641 531.62231445 C-493.49057051 523.84177434 -489.20502818 516.22898037 -484.85546875 508.625 C-481.07997066 501.99309882 -477.49366396 495.28415438 -474 488.5 C-470.11755791 480.96420401 -466.09091138 473.54180695 -461.875 466.1875 C-456.36529338 456.56908795 -451.15566451 446.81073463 -446 437 C-440.35227796 426.25292713 -434.58959559 415.60061588 -428.55078125 405.06640625 C-424.337636 397.68540241 -420.40864164 390.17720906 -416.51806641 382.62231445 C-412.49057051 374.84177434 -408.20502818 367.22898037 -403.85546875 359.625 C-400.07997066 352.99309882 -396.49366396 346.28415438 -393 339.5 C-389.11755791 331.96420401 -385.09091138 324.54180695 -380.875 317.1875 C-375.36529338 307.56908795 -370.15566451 297.81073463 -365 288 C-359.35227796 277.25292713 -353.58959559 266.60061588 -347.55078125 256.06640625 C-343.337636 248.68540241 -339.40864164 241.17720906 -335.51806641 233.62231445 C-331.49057051 225.84177434 -327.20502818 218.22898037 -322.85546875 210.625 C-319.07997066 203.99309882 -315.49366396 197.28415438 -312 190.5 C-308.11755791 182.96420401 -304.09091138 175.54180695 -299.875 168.1875 C-294.36529338 158.56908795 -289.15566451 148.81073463 -284 139 C-278.35227796 128.25292713 -272.58959559 117.60061588 -266.55078125 107.06640625 C-262.34057703 99.69055481 -258.41291827 92.1882754 -254.52685547 84.63769531 C-250.92861894 77.68339983 -247.13710197 70.85903209 -243.25 64.0625 C-237.81900663 54.55706535 -232.77595151 44.93327213 -228.07177734 35.04980469 C-227.4539148 33.75213203 -226.83223412 32.45626967 -226.20654297 31.16235352 C-225.3750255 29.44187076 -224.55613063 27.71530313 -223.73828125 25.98828125 C-221.82831629 22.70485834 -219.7769519 20.58625992 -217 18 C-216.51813232 17.41468506 -216.03626465 16.82937012 -215.53979492 16.22631836 C-210.5290838 10.39201196 -205.55069734 9.43833293 -198.125 8.375 C-196.91448975 8.18244629 -195.70397949 7.98989258 -194.45678711 7.79150391 C-191.04656152 7.2662659 -187.635265 6.77398901 -184.21710205 6.3046875 C-181.94584307 5.99255743 -179.67582179 5.67228582 -177.40576172 5.3515625 C-119.06163616 -2.80243226 -58.7431925 -5.53585015 0 0 Z " fill="#7664C5" transform="translate(1862,143)"/>
<path d="M0 0 C3.37483921 3.12264399 5.86550013 6.57677007 8.34765625 10.4140625 C9.23504562 11.76517041 10.12327946 13.11572393 11.01220703 14.46582031 C11.49103333 15.19482544 11.96985962 15.92383057 12.4631958 16.67492676 C15.25363708 20.89666194 18.09650464 25.08297408 20.93359375 29.2734375 C22.17262087 31.10670675 23.41155185 32.94004097 24.65039062 34.7734375 C26.54261322 37.57278295 28.43532774 40.3717908 30.3293457 43.16992188 C37.54743136 53.83566089 44.70419755 64.53122754 51.66015625 75.37011719 C54.71854714 80.13216323 57.86185208 84.8371371 61.01171875 89.5390625 C61.69693604 90.56241699 61.69693604 90.56241699 62.39599609 91.60644531 C63.59641135 93.39774991 64.79734263 95.18870871 65.99853516 96.97949219 C74.12045681 109.09324047 82.22033885 121.20718283 89.95361328 133.57470703 C92.81344492 138.14308693 95.73761933 142.65587857 98.75 147.125 C103.93427936 154.82099719 108.91411016 162.64515642 113.90527344 170.46728516 C118.07394935 176.99781988 122.26742514 183.51071426 126.5 190 C137.02540293 206.14867566 147.36583193 222.4168439 157.70629883 238.68432617 C162.1642864 245.69496791 166.64282998 252.69230083 171.125 259.6875 C182.22518515 277.01973866 193.16938221 294.4466228 204.06787109 311.90625 C205.98762772 314.98018935 207.90946258 318.05281876 209.83203125 321.125 C218.45865641 334.91165169 227.03524269 348.72842915 235.58398438 362.56347656 C237.1805085 365.14678221 238.77758486 367.72974523 240.375 370.3125 C240.90915527 371.17633301 241.44331055 372.04016602 241.99365234 372.93017578 C245.43904862 378.49597381 248.90752982 384.04682719 252.38671875 389.59155273 C260.66794478 402.79572458 268.77648434 416.09965399 276.84277344 429.43554688 C280.03496077 434.711979 283.23731929 439.9822336 286.43896484 445.25292969 C287.50263612 447.00434056 288.56584649 448.75603039 289.62890625 450.5078125 C292.79411382 455.72333713 295.96084407 460.93790189 299.13613892 466.14729309 C307.86373691 480.4660923 316.49511504 494.83808751 325.04101562 509.26611328 C329.9590612 517.56864193 334.90178675 525.85534582 339.875 534.125 C346.1053009 544.48899312 352.27248953 554.88892257 358.41162109 565.30712891 C360.00731181 568.01239614 361.6065712 570.71552071 363.20703125 573.41796875 C374.38907638 592.30248561 385.43766033 611.26267346 396.38964844 630.28149414 C400.60669272 637.60010999 404.8577755 644.89805415 409.125 652.1875 C414.20214611 660.86521729 419.18139623 669.59330907 424.10595703 678.35839844 C427.99436271 685.26405624 431.98165703 692.10681598 436 698.9375 C441.24994712 707.87742238 446.26488291 716.92124563 451.16918945 726.0546875 C458.99015734 740.6039968 467.15621917 754.94902668 475.61181641 769.13793945 C478.76398961 774.47851053 481.50274984 779.945372 484.21484375 785.5234375 C486.53520353 790.04230009 489.15214333 794.34378454 491.80273438 798.67407227 C494.33631851 802.8324313 496.59124482 807.04348666 498.703125 811.43359375 C500.28720753 814.56835947 502.04511104 817.59164777 503.8125 820.625 C506.64318909 825.50209794 509.26876689 830.43659794 511.75 835.5 C515.32887395 842.78391475 519.17504563 849.90166924 523.08056641 857.01489258 C529.81773259 869.29101816 536.41377693 881.64242359 543 894 C543.44520996 894.83499023 543.89041992 895.66998047 544.34912109 896.53027344 C551.11038131 909.23425276 557.66840472 922.04379863 564.22973633 934.85180664 C568.10418051 942.40898585 572.01281106 949.94626385 575.9765625 957.45703125 C580.83750702 966.66925889 585.62442692 975.91792625 590.375 985.1875 C590.7949826 986.00661865 591.21496521 986.8257373 591.64767456 987.66967773 C604.44445866 1012.64269062 617.16064924 1037.67141686 629.16015625 1063.0390625 C631.4466898 1067.86308025 633.77843507 1072.66402162 636.12109375 1077.4609375 C650.1514965 1106.1974587 650.1514965 1106.1974587 655.9453125 1119.390625 C659.89677054 1128.34726321 664.13187031 1137.1815157 668.33203125 1146.0234375 C678.27837678 1166.99684961 687.66000373 1188.19824188 696.90759277 1209.48773193 C697.9638213 1211.91679788 699.02278533 1214.34464763 700.08300781 1216.77197266 C715.91236766 1253.01343277 731.0024836 1289.51793876 745.22998047 1326.41845703 C746.6296074 1330.04640354 748.04013152 1333.66993529 749.45753479 1337.29096985 C750.64197014 1340.31757148 751.82046052 1343.34648765 753 1346.375 C753.41564209 1347.43259521 753.83128418 1348.49019043 754.25952148 1349.57983398 C754.81168335 1351.00598022 754.81168335 1351.00598022 755.375 1352.4609375 C755.85066406 1353.67982666 755.85066406 1353.67982666 756.3359375 1354.92333984 C757 1357 757 1357 757 1360 C751.05863461 1358.79079515 745.37430018 1357.25085696 739.65234375 1355.25390625 C738.84141769 1354.97569534 738.03049164 1354.69748444 737.19499207 1354.4108429 C735.40120794 1353.79502985 733.60815278 1353.17709037 731.81573486 1352.55731201 C726.61659698 1350.76032008 721.41134701 1348.98114697 716.20703125 1347.19921875 C715.04044983 1346.79934753 713.87386841 1346.39947632 712.67193604 1345.98748779 C696.70513953 1340.51986132 680.70881061 1335.13943712 664.71600342 1329.74848938 C656.87667036 1327.10566223 649.03799533 1324.46088337 641.19921875 1321.81640625 C640.33828487 1321.52598324 639.477351 1321.23556023 638.59032822 1320.93633652 C621.70235295 1315.23930745 604.8189079 1309.52895593 587.9375 1303.8125 C582.66538132 1302.02729432 577.39324895 1300.24212907 572.12109375 1298.45703125 C571.46810051 1298.23592934 570.81510727 1298.01482742 570.14232635 1297.78702545 C555.84412636 1292.94583069 541.54348784 1288.11185697 527.24254704 1283.27876568 C522.04516053 1281.52226917 516.84786714 1279.76549742 511.65063477 1278.00854492 C510.17877708 1277.51098117 508.70691938 1277.01341749 507.23506165 1276.51585388 C505.0284429 1275.7699022 502.82182476 1275.02394873 500.61520958 1274.27798653 C491.49965832 1271.19644719 482.38372144 1268.11605274 473.26731491 1265.03704453 C467.15212598 1262.97160807 461.03727252 1260.90518046 454.92265701 1258.83804703 C451.31269902 1257.61769723 447.70257723 1256.39783733 444.09204102 1255.17919922 C440.13116871 1253.8423098 436.1710236 1252.503279 432.2109375 1251.1640625 C430.45534012 1250.57209579 430.45534012 1250.57209579 428.66427612 1249.96817017 C427.5896109 1249.60436249 426.51494568 1249.24055481 425.40771484 1248.86572266 C424.47825043 1248.55172516 423.54878601 1248.23772766 422.59115601 1247.91421509 C421.73607452 1247.61252411 420.88099304 1247.31083313 420 1247 C419.10153854 1246.6876944 418.20307709 1246.37538879 417.27738953 1246.05361938 C413.8526645 1244.46919273 413.08341429 1242.13350651 411.43359375 1238.796875 C411.11843307 1238.17196167 410.8032724 1237.54704834 410.4785614 1236.90319824 C409.80311099 1235.55972984 409.13479626 1234.21265461 408.47296143 1232.86242676 C407.06947105 1229.99919057 405.63231593 1227.15332759 404.19671631 1224.30609131 C403.47413371 1222.87228324 402.75330885 1221.43758799 402.03424072 1220.00201416 C399.19549317 1214.34307297 396.20542405 1208.78116918 393.125 1203.25 C387.45840667 1193.0101418 382.14082887 1182.59924049 376.81402588 1172.18029785 C372.3180272 1163.39096324 367.78474068 1154.63686241 363 1146 C357.37344697 1135.84359496 352.09818544 1125.51591581 346.81347656 1115.17919922 C342.31766054 1106.39023216 337.78454171 1097.63650326 333 1089 C327.7943987 1079.60344851 322.88938034 1070.06341713 318 1060.5 C312.6526081 1050.04087751 307.23728048 1039.64117654 301.546875 1029.36328125 C296.63788148 1020.44639713 292.02332518 1011.3815638 287.38494873 1002.32214355 C283.05072032 993.86149711 278.66754803 985.44254462 274.0625 977.125 C268.41745165 966.92596307 263.119543 956.55764848 257.81375122 946.17974854 C253.31784387 937.3905977 248.7846412 928.63668284 244 920 C238.37344697 909.84359496 233.09818544 899.51591581 227.81347656 889.17919922 C223.31766054 880.39023216 218.78454171 871.63650326 214 863 C208.37344697 852.84359496 203.09818544 842.51591581 197.81347656 832.17919922 C193.31766054 823.39023216 188.78454171 814.63650326 184 806 C178.37344697 795.84359496 173.09818544 785.51591581 167.81347656 775.17919922 C163.31766054 766.39023216 158.78454171 757.63650326 154 749 C148.37344697 738.84359496 143.09818544 728.51591581 137.81347656 718.17919922 C133.31766054 709.39023216 128.78454171 700.63650326 124 692 C118.37344697 681.84359496 113.09818544 671.51591581 107.81347656 661.17919922 C103.31766054 652.39023216 98.78454171 643.63650326 94 635 C88.37344697 624.84359496 83.09818544 614.51591581 77.81347656 604.17919922 C73.31766054 595.39023216 68.78454171 586.63650326 64 578 C58.37344697 567.84359496 53.09818544 557.51591581 47.81347656 547.17919922 C43.31766054 538.39023216 38.78454171 529.63650326 34 521 C28.37344697 510.84359496 23.09818544 500.51591581 17.81347656 490.17919922 C13.31766054 481.39023216 8.78454171 472.63650326 4 464 C-1.62655303 453.84359496 -6.90181456 443.51591581 -12.18652344 433.17919922 C-16.68233946 424.39023216 -21.21545829 415.63650326 -26 407 C-31.62655303 396.84359496 -36.90181456 386.51591581 -42.18652344 376.17919922 C-47.11156562 366.55112875 -52.1249427 356.99253778 -57.36743164 347.5324707 C-63.06561822 337.18114124 -68.40101987 326.6390716 -73.77148438 316.11523438 C-74.51287552 314.66398826 -75.25440801 313.21281433 -75.99609375 311.76171875 C-76.34868256 311.07093231 -76.70127136 310.38014587 -77.06454468 309.66842651 C-79.33510364 305.23905493 -81.69430791 300.87524219 -84.20727539 296.57739258 C-85 295 -85 295 -85 293 C-85.86347549 293.03758423 -86.72695099 293.07516846 -87.61659241 293.1138916 C-95.86497995 293.4720243 -104.11355983 293.82528832 -112.36237431 294.17345428 C-116.60034068 294.35249244 -120.83821831 294.5332338 -125.07592773 294.71826172 C-143.72505815 295.53130751 -162.32760131 296.26630823 -181 296 C-180.21393525 294.4088702 -179.42566321 292.81883076 -178.63647461 291.22924805 C-177.97838051 289.9008918 -177.97838051 289.9008918 -177.30699158 288.54570007 C-175.57506564 285.17233174 -173.61641775 281.99624614 -171.5625 278.8125 C-170.6822725 277.42531668 -169.8034507 276.03724072 -168.92578125 274.6484375 C-168.4560791 273.90561523 -167.98637695 273.16279297 -167.50244141 272.39746094 C-164.70762527 267.93774457 -161.98151904 263.43616085 -159.25 258.9375 C-158.65630615 257.96055176 -158.0626123 256.98360352 -157.45092773 255.97705078 C-155.63326376 252.98511779 -153.81657964 249.99259145 -152 247 C-144.76280045 235.08326062 -137.50397213 223.18076855 -130.1875 211.3125 C-124.54980555 202.16596366 -118.94681622 192.99924643 -113.375 183.8125 C-113.01936981 183.22617798 -112.66373962 182.63985596 -112.29733276 182.0357666 C-110.53672706 179.13278774 -108.77656742 176.22953869 -107.01660156 173.32617188 C-99.61990327 161.12609711 -92.21429211 148.93285761 -84.6875 136.8125 C-79.59634664 128.61317909 -74.56688657 120.37743934 -69.5625 112.125 C-69.20055542 111.52815399 -68.83861084 110.93130798 -68.46569824 110.31637573 C-66.66063298 107.33942589 -64.85610045 104.36215349 -63.05175781 101.38476562 C-55.14055211 88.33372376 -47.19570782 75.3042644 -39.1875 62.3125 C-33.51117079 53.10167022 -27.86555823 43.87296778 -22.25 34.625 C-21.89480286 34.04049072 -21.53960571 33.45598145 -21.17364502 32.85375977 C-17.53223981 26.86017488 -13.9068845 20.85782112 -10.33203125 14.82421875 C-9.49720215 13.41825439 -9.49720215 13.41825439 -8.64550781 11.98388672 C-7.61804152 10.24999773 -6.59498604 8.51348453 -5.57714844 6.77392578 C-5.13016602 6.01966309 -4.68318359 5.26540039 -4.22265625 4.48828125 C-3.83859619 3.83384033 -3.45453613 3.17939941 -3.05883789 2.50512695 C-2 1 -2 1 0 0 Z " fill="#6C36AA" transform="translate(1820,470)"/>
<path d="M0 0 C0.99918457 0.14985352 1.99836914 0.29970703 3.02783203 0.45410156 C35.56711372 5.48314231 68.56418401 15.26593821 94 37 C94.79148437 37.63035156 95.58296875 38.26070312 96.3984375 38.91015625 C119.79633425 58.24420778 130.46836235 88.31503089 133.75 117.625 C133.86084676 119.4151751 133.94106405 121.20736494 134 123 C134.0515625 124.27101563 134.103125 125.54203125 134.15625 126.8515625 C135.37763883 171.23037244 118.40674535 213.9427691 92 249 C91.29101562 249.94230469 90.58203125 250.88460938 89.8515625 251.85546875 C77.79703325 267.32954814 63.55700375 282.06473257 48 294 C47.42056641 294.45052734 46.84113281 294.90105469 46.24414062 295.36523438 C-8.0629579 337.51654712 -73.9544264 361.15279662 -140.66579056 375.17323685 C-161.5928021 379.58305077 -182.39972412 384.4812079 -203.20445251 389.43055725 C-206.18493031 390.13925013 -209.16572126 390.84661163 -212.14660645 391.55358887 C-256.23664186 402.01137112 -300.28948505 412.62268399 -344.3155899 423.34626007 C-346.9979799 423.99950804 -349.68046651 424.65235794 -352.36297607 425.30511475 C-362.5715112 427.78966107 -372.7782093 430.28156164 -382.9822998 432.78430176 C-386.05593051 433.53810156 -389.13006326 434.28979214 -392.20471191 435.03942871 C-414.56948726 440.49544848 -436.8737016 446.15253256 -458.5625 453.9375 C-459.18731262 454.16065887 -459.81212524 454.38381775 -460.45587158 454.61373901 C-503.96639413 470.20773076 -546.13663884 489.73606985 -588.06542969 509.10662842 C-589.91420152 509.96037884 -591.76372342 510.81250448 -593.61328125 511.66455078 C-623.70387359 525.52990725 -653.62306158 539.76018551 -683.39442635 554.29759598 C-688.25223735 556.66740983 -693.11650271 559.02363323 -697.98420715 561.37304688 C-717.05775727 570.58370253 -736.04906252 579.94871006 -754.99037313 589.42802382 C-758.76568321 591.31698338 -762.54200384 593.20392108 -766.31814575 595.09121704 C-772.63289749 598.24769561 -778.94682647 601.40581495 -785.26025391 604.56494141 C-792.49898479 608.18704171 -799.73916919 611.80622374 -806.98008907 615.42394578 C-813.28407853 618.573655 -819.5872709 621.72495506 -825.88982594 624.87753356 C-829.61692602 626.74185205 -833.344273 628.60567148 -837.07235336 630.46802902 C-851.11813947 637.4854188 -865.15621046 644.50529319 -879.01101685 651.89541626 C-882.80917287 653.91602607 -886.64763694 655.85193318 -890.49519157 657.7765255 C-900.31616191 662.69803345 -909.01119488 668.7255015 -917.76611328 675.32666016 C-921.47299405 678.10337718 -925.23897014 680.7973586 -929 683.5 C-930.50028753 684.58293511 -932.00028758 685.66626859 -933.5 686.75 C-942.5 693.25 -951.5 699.75 -960.5 706.25 C-961.24282227 706.7864917 -961.98564453 707.3229834 -962.75097656 707.87573242 C-964.24768701 708.95667191 -965.74443168 710.03756401 -967.24121094 711.1184082 C-971.04182637 713.8629754 -974.84180298 716.60841966 -978.640625 719.35546875 C-986.27343671 724.87368746 -993.91147309 730.38368387 -1001.58691406 735.8425293 C-1003.84375197 737.44936744 -1006.0787355 739.06184415 -1008.2578125 740.7734375 C-1010 742 -1010 742 -1012 742 C-1010.38762592 736.07818974 -1007.37089023 731.13868624 -1004.3125 725.875 C-999.1590428 716.88976496 -994.17833801 707.83017791 -989.3125 698.6875 C-984.11468609 688.93236032 -978.83536863 679.23094072 -973.44042969 669.58349609 C-970.34010456 664.02287907 -967.26420557 658.44870934 -964.1875 652.875 C-963.84411591 652.25306763 -963.50073181 651.63113525 -963.14694214 650.99035645 C-957.88552451 641.45738608 -952.68036103 631.89517161 -947.50585938 622.31469727 C-944.04718567 615.91668798 -940.54725412 609.54388404 -937.00488281 603.19189453 C-932.41345541 594.95817669 -927.86372736 586.70150825 -923.31201172 578.44580078 C-922.61555991 577.18261718 -921.91910809 575.91943359 -921.22265625 574.65625 C-920.70037445 573.70889481 -920.70037445 573.70889481 -920.1675415 572.74240112 C-917.73842349 568.33700517 -915.30556734 563.93368822 -912.87109375 559.53125 C-906.02835165 547.15353711 -899.22571576 534.75627775 -892.50439453 522.31201172 C-888.64768784 515.17764383 -884.73017268 508.079704 -880.78125 500.99609375 C-877.2341498 494.63116657 -873.70938388 488.25390283 -870.1875 481.875 C-869.84429718 481.25343018 -869.50109436 480.63186035 -869.14749146 479.99145508 C-863.88590103 470.45811354 -858.68055504 460.89553081 -853.50585938 451.31469727 C-850.04718567 444.91668798 -846.54725412 438.54388404 -843.00488281 432.19189453 C-838.41345541 423.95817669 -833.86372736 415.70150825 -829.31201172 407.44580078 C-828.61555991 406.18261718 -827.91910809 404.91943359 -827.22265625 403.65625 C-826.87446838 403.02467987 -826.52628052 402.39310974 -826.1675415 401.74240112 C-823.73842349 397.33700517 -821.30556734 392.93368822 -818.87109375 388.53125 C-812.02835165 376.15353711 -805.22571576 363.75627775 -798.50439453 351.31201172 C-795.0462281 344.91488755 -791.54675733 338.54299322 -788.00488281 332.19189453 C-783.41345541 323.95817669 -778.86372736 315.70150825 -774.31201172 307.44580078 C-773.61555991 306.18261718 -772.91910809 304.91943359 -772.22265625 303.65625 C-771.87446838 303.02467987 -771.52628052 302.39310974 -771.1675415 301.74240112 C-769.07930991 297.95522942 -766.98879649 294.16932975 -764.89598083 290.38468933 C-763.53666893 287.92646522 -762.1781139 285.46782311 -760.81954956 283.00918579 C-760.1502716 281.7985064 -759.48061652 280.5880354 -758.81057739 279.3777771 C-755.25236049 272.95035051 -751.7253122 266.50920697 -748.28125 260.01953125 C-747.69496826 258.91907471 -747.10868652 257.81861816 -746.50463867 256.68481445 C-745.41094171 254.62634138 -744.32463499 252.5639171 -743.24731445 250.49682617 C-738.41195728 241.40686595 -732.63660696 236.86653016 -724 231.5 C-723.02305176 230.88616455 -722.04610352 230.2723291 -721.03955078 229.63989258 C-718.03081141 227.75270697 -715.0160735 225.87543663 -712 224 C-710.28903034 222.93104105 -708.57809121 221.86203324 -706.8671875 220.79296875 C-701.59207198 217.50584774 -696.29921214 214.24810532 -691 211 C-689.42653809 210.03537842 -689.42653809 210.03537842 -687.82128906 209.05126953 C-670.58073789 198.49803872 -653.21666117 188.16928836 -635.74023438 178.01171875 C-634.03727382 177.02166985 -632.33503492 176.03037997 -630.6328125 175.0390625 C-614.20570933 165.47934688 -597.65753758 156.15210699 -581 147 C-579.99259766 146.44602539 -578.98519531 145.89205078 -577.94726562 145.32128906 C-562.03933962 136.59132967 -545.9723393 128.17948979 -529.81311035 119.9263916 C-528.03586618 119.01832548 -526.25962163 118.10830378 -524.48339844 117.19824219 C-494.41495144 101.82879327 -463.74056696 88.17903105 -432.03466797 76.5390625 C-425.31926696 74.06786625 -418.72555465 71.47736389 -412.203125 68.53125 C-403.2646419 64.53007056 -394.06864691 61.48478755 -384.75 58.5 C-383.8370517 58.20552979 -382.92410339 57.91105957 -381.98348999 57.60766602 C-308.55943004 33.96765022 -233.37927462 15.08975094 -157 4 C-156.27500305 3.89427673 -155.5500061 3.78855347 -154.80303955 3.67962646 C-144.89124431 2.24326267 -134.96184329 1.03746893 -125 0 C-123.95912231 -0.11118164 -123.95912231 -0.11118164 -122.8972168 -0.22460938 C-82.54123523 -4.5155555 -40.22053784 -6.1918029 0 0 Z " fill="#992FA7" transform="translate(1635,1322)"/>
<path d="M0 0 C2.4613033 0.36748513 3.67959801 0.62242789 5.31762695 2.55273438 C5.70394287 3.22626953 6.09025879 3.89980469 6.48828125 4.59375 C6.93905029 5.36332031 7.38981934 6.13289062 7.85424805 6.92578125 C8.33547119 7.77527344 8.81669434 8.62476563 9.3125 9.5 C10.38748152 11.34406449 11.4630279 13.18779979 12.5390625 15.03125 C13.10399414 16.00835937 13.66892578 16.98546875 14.25097656 17.9921875 C17.17801315 23.02584059 20.18569164 28.0107056 23.1875 33 C23.81470947 34.04599365 24.44191895 35.0919873 25.08813477 36.16967773 C29.42896843 43.40585784 33.80483699 50.62015149 38.19351196 57.82739258 C45.10806471 69.18340549 51.93021304 80.590881 58.70288086 92.03204346 C65.02114832 102.70254565 71.41700251 113.32287068 77.8671875 123.9140625 C83.05745099 132.43740201 88.20071239 140.98795312 93.32592773 149.55053711 C98.12129181 157.5542508 102.96200502 165.52965299 107.8125 173.5 C112.64810153 181.44633461 117.44825221 189.40943293 122.13427734 197.44506836 C126.3410012 204.63264095 130.6899737 211.73367756 135.02380371 218.84500122 C141.00622416 228.6661026 146.89585114 238.53949021 152.75 248.4375 C158.55931386 258.25781962 164.43118718 268.02929134 170.47241211 277.70947266 C176.1012932 286.73432047 181.55619644 295.86266405 187 305 C186.34 305.99 185.68 306.98 185 308 C184.071875 306.7625 184.071875 306.7625 183.125 305.5 C182.42375 304.675 181.7225 303.85 181 303 C180.34 303 179.68 303 179 303 C178.75507812 303.67675781 178.51015625 304.35351562 178.2578125 305.05078125 C176.7410566 308.6071499 174.85017056 311.87347417 172.875 315.1875 C172.44324463 315.91670654 172.01148926 316.64591309 171.56665039 317.3972168 C166.92418197 325.19717281 162.15104317 332.91717912 157.3828125 340.640625 C152.34530066 348.80195703 147.347346 356.98631579 142.375 365.1875 C142.01873535 365.77493988 141.6624707 366.36237976 141.29541016 366.96762085 C139.53108122 369.87681324 137.7671371 372.78623866 136.00341797 375.69580078 C127.37359076 389.92881094 118.69675895 404.13172666 109.96508789 418.30249023 C103.26822555 429.17629077 96.62990169 440.08528756 90 451 C82.76180287 462.91614053 75.5039774 474.8192229 68.1875 486.6875 C62.54980579 495.83403595 56.9467824 505.00073334 51.375 514.1875 C50.8400592 515.06947556 50.8400592 515.06947556 50.29431152 515.9692688 C48.53033783 518.87790521 46.76680207 521.7868069 45.00341797 524.69580078 C37.00507953 537.88730851 28.97246342 551.05658194 20.875 564.1875 C14.16231444 575.0731992 7.54699091 586.01395086 1 597 C3.97 597.33 6.94 597.66 10 598 C7.17282458 601.16748357 5.05713798 602.56666809 1 603.75 C-12.81396671 608.53390837 -22.34580345 618.77096649 -32.36450195 628.95288086 C-34.68276595 631.30769132 -37.01666903 633.64606565 -39.35351562 635.98242188 C-46.30562899 642.96845387 -53.1161524 649.9208919 -59.15161133 657.72729492 C-61.2737502 660.33659234 -63.59117855 662.655239 -66 665 C-70.2244512 669.14070657 -74.25885356 673.36098214 -78.125 677.83984375 C-81.68974364 681.94672549 -85.35607148 685.96345965 -89 690 C-90.50028679 691.66640851 -92.00028872 693.33307353 -93.5 695 C-95.7717129 697.52500493 -98.04435414 700.04913304 -100.3203125 702.5703125 C-103.71872932 706.33737115 -107.1081661 710.10915586 -110.4375 713.9375 C-114.09178862 718.13442081 -117.84744973 722.2365276 -121.59765625 726.34765625 C-123.56941844 728.52460996 -125.51365337 730.71838674 -127.4375 732.9375 C-130.3988351 736.3468858 -133.44152486 739.6779431 -136.5 743 C-140.14414329 746.95862186 -143.73913717 750.9517676 -147.265625 755.015625 C-150.79500714 759.05374691 -154.40634226 763.01914681 -158 767 C-159.50028679 768.66640851 -161.00028872 770.33307353 -162.5 772 C-164.7717129 774.52500493 -167.04435414 777.04913304 -169.3203125 779.5703125 C-172.69912708 783.31564256 -176.06895965 787.06518207 -179.375 790.875 C-182.82716078 794.84097076 -186.38750881 798.70517646 -189.94824219 802.57324219 C-193.10697965 806.0102442 -196.20638336 809.49021321 -199.265625 813.015625 C-202.79500714 817.05374691 -206.40634226 821.01914681 -210 825 C-211.50028679 826.66640851 -213.00028872 828.33307353 -214.5 830 C-216.7717129 832.52500493 -219.04435414 835.04913304 -221.3203125 837.5703125 C-224.69912708 841.31564256 -228.06895965 845.06518207 -231.375 848.875 C-234.82716078 852.84097076 -238.38750881 856.70517646 -241.94824219 860.57324219 C-245.10697965 864.0102442 -248.20638336 867.49021321 -251.265625 871.015625 C-254.79500714 875.05374691 -258.40634226 879.01914681 -262 883 C-263.50028679 884.66640851 -265.00028872 886.33307353 -266.5 888 C-268.7717129 890.52500493 -271.04435414 893.04913304 -273.3203125 895.5703125 C-276.71872932 899.33737115 -280.1081661 903.10915586 -283.4375 906.9375 C-295.04188436 920.24602472 -307.23433716 932.42128642 -320.984375 943.51953125 C-324.54670352 946.44968489 -328.02467961 949.46765967 -331.5 952.5 C-336.65559878 956.99525353 -341.87511636 961.38623836 -347.19140625 965.69140625 C-350.50298593 968.41344185 -353.7531 971.20143139 -357 974 C-362.01171583 978.31820272 -367.08218579 982.54906846 -372.21875 986.71875 C-375.36383999 989.29843056 -378.46472926 991.92639674 -381.5625 994.5625 C-386.1603844 998.47113925 -390.81456145 1002.2923258 -395.54296875 1006.04296875 C-400.0678414 1009.64704061 -404.52825366 1013.33038895 -409 1017 C-412.6639525 1020.00333076 -416.33083057 1023.00304481 -420 1026 C-420.59973633 1026.49016602 -421.19947266 1026.98033203 -421.81738281 1027.48535156 C-429.39280578 1033.67302719 -436.99753036 1039.81453878 -444.70800781 1045.83325195 C-449.20624925 1049.35331044 -453.6394647 1052.9485822 -458.0625 1056.5625 C-463.82043935 1061.26164189 -469.64072941 1065.8523244 -475.55078125 1070.359375 C-478.82073216 1072.85423353 -482.06087977 1075.38622668 -485.30078125 1077.91992188 C-494.92396135 1085.44062826 -504.66585977 1092.79231183 -514.45458984 1100.09570312 C-517.01299625 1102.00972288 -519.56414208 1103.93303411 -522.11328125 1105.859375 C-531.93536019 1113.27518127 -541.85074179 1120.51711815 -551.9453125 1127.55712891 C-553.99497933 1128.99647432 -556.03038625 1130.45396757 -558.0625 1131.91796875 C-614.39695628 1172.39621238 -614.39695628 1172.39621238 -635 1172 C-633.32517231 1165.89664021 -630.22645628 1160.62904001 -627.1875 1155.125 C-626.0050665 1152.96361925 -624.8227789 1150.80215868 -623.640625 1148.640625 C-623.03541016 1147.53783203 -622.43019531 1146.43503906 -621.80664062 1145.29882812 C-618.99689151 1140.16837813 -616.21852626 1135.02105646 -613.4375 1129.875 C-608.81532405 1121.33674657 -604.17274473 1112.80981089 -599.51928711 1104.28857422 C-595.83194925 1097.53339546 -592.16268545 1090.76857311 -588.5 1084 C-583.85670838 1075.41928532 -579.1959884 1066.84834827 -574.51733398 1058.28686523 C-571.93790656 1053.5637616 -569.36882249 1048.83541885 -566.81640625 1044.09765625 C-561.45564711 1034.151878 -556.03650601 1024.25144107 -550.4375 1014.4375 C-545.58896615 1005.93462032 -541.00033981 997.32605143 -536.51928711 988.62475586 C-532.49146271 980.84335597 -528.20548165 973.22977315 -523.85546875 965.625 C-520.0799743 958.99310521 -516.49351015 952.28423079 -513 945.5 C-508.49339827 936.74839347 -503.74272543 928.16899267 -498.85546875 919.625 C-495.0799743 912.99310521 -491.49351015 906.28423079 -488 899.5 C-483.49339827 890.74839347 -478.74272543 882.16899267 -473.85546875 873.625 C-470.0799743 866.99310521 -466.49351015 860.28423079 -463 853.5 C-458.49339827 844.74839347 -453.74272543 836.16899267 -448.85546875 827.625 C-445.0799743 820.99310521 -441.49351015 814.28423079 -438 807.5 C-433.49339827 798.74839347 -428.74272543 790.16899267 -423.85546875 781.625 C-420.07997066 774.99309882 -416.49366396 768.28415438 -413 761.5 C-409.11755791 753.96420401 -405.09091138 746.54180695 -400.875 739.1875 C-395.36529338 729.56908795 -390.15566451 719.81073463 -385 710 C-379.35227796 699.25292713 -373.58959559 688.60061588 -367.55078125 678.06640625 C-363.337636 670.68540241 -359.40864164 663.17720906 -355.51806641 655.62231445 C-351.49057051 647.84177434 -347.20502818 640.22898037 -342.85546875 632.625 C-339.07997066 625.99309882 -335.49366396 619.28415438 -332 612.5 C-328.11755791 604.96420401 -324.09091138 597.54180695 -319.875 590.1875 C-314.36529338 580.56908795 -309.15566451 570.81073463 -304 561 C-298.35227796 550.25292713 -292.58959559 539.60061588 -286.55078125 529.06640625 C-282.337636 521.68540241 -278.40864164 514.17720906 -274.51806641 506.62231445 C-270.49057051 498.84177434 -266.20502818 491.22898037 -261.85546875 483.625 C-258.07997066 476.99309882 -254.49366396 470.28415438 -251 463.5 C-247.11755791 455.96420401 -243.09091138 448.54180695 -238.875 441.1875 C-233.36529338 431.56908795 -228.15566451 421.81073463 -223 412 C-217.35227796 401.25292713 -211.58959559 390.60061588 -205.55078125 380.06640625 C-201.337636 372.68540241 -197.40864164 365.17720906 -193.51806641 357.62231445 C-189.49057051 349.84177434 -185.20502818 342.22898037 -180.85546875 334.625 C-177.07997066 327.99309882 -173.49366396 321.28415438 -170 314.5 C-166.11755791 306.96420401 -162.09091138 299.54180695 -157.875 292.1875 C-152.36529338 282.56908795 -147.15566451 272.81073463 -142 263 C-136.35227796 252.25292713 -130.58959559 241.60061588 -124.55078125 231.06640625 C-120.337636 223.68540241 -116.40864164 216.17720906 -112.51806641 208.62231445 C-108.49057051 200.84177434 -104.20502818 193.22898037 -99.85546875 185.625 C-96.07997066 178.99309882 -92.49366396 172.28415438 -89 165.5 C-85.11755791 157.96420401 -81.09091138 150.54180695 -76.875 143.1875 C-71.36529338 133.56908795 -66.15566451 123.81073463 -61 114 C-55.35227796 103.25292713 -49.58959559 92.60061588 -43.55078125 82.06640625 C-39.34057703 74.69055481 -35.41291827 67.1882754 -31.52685547 59.63769531 C-27.92862038 52.68340263 -24.13716213 45.85899602 -20.25 39.0625 C-15.17466101 30.18121647 -10.46375603 21.20080324 -6 12 C-4.84002625 9.66325931 -3.66995962 7.33177568 -2.5 5 C-2.0153125 4.030625 -1.530625 3.06125 -1.03125 2.0625 C-0.6909375 1.381875 -0.350625 0.70125 0 0 Z " fill="#5061C1" transform="translate(1639,168)"/>
<path d="M0 0 C1.32 0.33 2.64 0.66 4 1 C3.2575 1.845625 2.515 2.69125 1.75 3.5625 C-0.98486187 6.82719266 -2.97901586 10.25743678 -5 14 C-5.33 13.34 -5.66 12.68 -6 12 C-4.78515625 9.1796875 -4.78515625 9.1796875 -3.0625 5.875 C-2.49660156 4.77929688 -1.93070313 3.68359375 -1.34765625 2.5546875 C-0.90292969 1.71164063 -0.45820312 0.86859375 0 0 Z " fill="#3A8FD7" transform="translate(1639,168)"/>
</svg>
