<?xml version="1.0" encoding="UTF-8"?>
<svg version="1.1" xmlns="http://www.w3.org/2000/svg" width="3619" height="2217">
<path d="M0 0 C1.44041012 0.13042462 2.88084067 0.2606238 4.32128906 0.390625 C21.06883969 1.92480875 37.75090824 3.93437624 54.37145996 6.50744629 C55.92093442 6.74688522 57.47112682 6.98173746 59.02209473 7.21130371 C74.03332907 9.4581369 92.33663549 12.80396259 102.5 25 C104 28 104 28 104.4362793 30.87109375 C105.01651021 34.09163919 105.93905771 36.21561257 107.51953125 39.0625 C108.04087646 40.01237793 108.56222168 40.96225586 109.09936523 41.94091797 C109.66469971 42.95041504 110.23003418 43.95991211 110.8125 45 C111.39781494 46.06234863 111.98312988 47.12469727 112.58618164 48.21923828 C113.79852466 50.41919254 115.01428976 52.61726429 116.23339844 54.81347656 C118.82489096 59.48790448 121.38111588 64.18131112 123.9375 68.875 C124.42259033 69.76316406 124.90768066 70.65132813 125.4074707 71.56640625 C129.90224997 79.79986113 134.34479767 88.06113499 138.78662109 96.32324219 C143.00690872 104.16839522 147.25914907 111.99546425 151.53125 119.8125 C155.20327086 126.53317479 158.85552973 133.26434895 162.5 140 C166.65275785 147.67431131 170.81779199 155.34169791 175 163 C181.91431084 175.6627639 188.77944658 188.3520455 195.64550781 201.04101562 C197.28421512 204.06916756 198.92323159 207.09715178 200.5625 210.125 C201.10197266 211.12144531 201.64144531 212.11789062 202.19726562 213.14453125 C205.76403037 219.72866737 209.34680964 226.30388765 212.9375 232.875 C217.92531677 242.00403577 222.86070426 251.16068684 227.78662109 260.32324219 C232.00690872 268.16839522 236.25914907 275.99546425 240.53125 283.8125 C244.20327086 290.53317479 247.85552973 297.26434895 251.5 304 C255.65275785 311.67431131 259.81779199 319.34169791 264 327 C270.91431084 339.6627639 277.77944658 352.3520455 284.64550781 365.04101562 C286.28421512 368.06916756 287.92323159 371.09715178 289.5625 374.125 C290.10197266 375.12144531 290.64144531 376.11789062 291.19726562 377.14453125 C294.76403037 383.72866737 298.34680964 390.30388765 301.9375 396.875 C306.92531677 406.00403577 311.86070426 415.16068684 316.78662109 424.32324219 C321.00690872 432.16839522 325.25914907 439.99546425 329.53125 447.8125 C333.20327086 454.53317479 336.85552973 461.26434895 340.5 468 C344.65275785 475.67431131 348.81779199 483.34169791 353 491 C359.91431084 503.6627639 366.77944658 516.3520455 373.64550781 529.04101562 C375.28421512 532.06916756 376.92323159 535.09715178 378.5625 538.125 C379.10197266 539.12144531 379.64144531 540.11789062 380.19726562 541.14453125 C383.76403037 547.72866737 387.34680964 554.30388765 390.9375 560.875 C395.92531677 570.00403577 400.86070426 579.16068684 405.78662109 588.32324219 C410.00690872 596.16839522 414.25914907 603.99546425 418.53125 611.8125 C422.20327086 618.53317479 425.85552973 625.26434895 429.5 632 C433.65275785 639.67431131 437.81779199 647.34169791 442 655 C448.91431084 667.6627639 455.77944658 680.3520455 462.64550781 693.04101562 C464.28421512 696.06916756 465.92323159 699.09715178 467.5625 702.125 C468.10197266 703.12144531 468.64144531 704.11789062 469.19726562 705.14453125 C472.76403037 711.72866737 476.34680964 718.30388765 479.9375 724.875 C484.92531677 734.00403577 489.86070426 743.16068684 494.78662109 752.32324219 C499.00690872 760.16839522 503.25914907 767.99546425 507.53125 775.8125 C511.20327086 782.53317479 514.85552973 789.26434895 518.5 796 C522.65275785 803.67431131 526.81779199 811.34169791 531 819 C537.91431084 831.6627639 544.77944658 844.3520455 551.64550781 857.04101562 C553.28421512 860.06916756 554.92323159 863.09715178 556.5625 866.125 C557.10197266 867.12144531 557.64144531 868.11789062 558.19726562 869.14453125 C561.76403037 875.72866737 565.34680964 882.30388765 568.9375 888.875 C573.92531677 898.00403577 578.86070426 907.16068684 583.78662109 916.32324219 C588.00690872 924.16839522 592.25914907 931.99546425 596.53125 939.8125 C600.20327086 946.53317479 603.85552973 953.26434895 607.5 960 C611.65275785 967.67431131 615.81779199 975.34169791 620 983 C626.91431084 995.6627639 633.77944658 1008.3520455 640.64550781 1021.04101562 C642.28421512 1024.06916756 643.92323159 1027.09715178 645.5625 1030.125 C646.10197266 1031.12144531 646.64144531 1032.11789062 647.19726562 1033.14453125 C650.76403037 1039.72866737 654.34680964 1046.30388765 657.9375 1052.875 C662.92531677 1062.00403577 667.86070426 1071.16068684 672.78662109 1080.32324219 C677.00690872 1088.16839522 681.25914907 1095.99546425 685.53125 1103.8125 C689.20327086 1110.53317479 692.85552973 1117.26434895 696.5 1124 C700.65275785 1131.67431131 704.81779199 1139.34169791 709 1147 C714.81116974 1157.64248804 720.5879392 1168.30343264 726.35888672 1178.96777344 C729.07122137 1183.97925758 731.78568626 1188.98958758 734.5 1194 C737.76279053 1200.022858 741.02511518 1206.04596574 744.28515625 1212.0703125 C749.50878296 1221.7215847 754.74072607 1231.36809957 760 1241 C766.91423024 1253.66280823 773.77944636 1266.35204508 780.64550781 1279.04101562 C786.41500568 1289.70241692 792.19046796 1300.36034995 798 1311 C803.81110198 1321.64252526 809.58793903 1332.30343232 815.35888672 1342.96777344 C818.07122137 1347.97925758 820.78568626 1352.98958758 823.5 1358 C826.76279053 1364.022858 830.02511518 1370.04596574 833.28515625 1376.0703125 C838.50878296 1385.7215847 843.74072607 1395.36809957 849 1405 C855.91423024 1417.66280823 862.77944636 1430.35204508 869.64550781 1443.04101562 C875.41500568 1453.70241692 881.19046796 1464.36034995 887 1475 C892.81110198 1485.64252526 898.58793903 1496.30343232 904.35888672 1506.96777344 C907.07122137 1511.97925758 909.78568626 1516.98958758 912.5 1522 C915.76279053 1528.022858 919.02511518 1534.04596574 922.28515625 1540.0703125 C927.50878296 1549.7215847 932.74072607 1559.36809957 938 1569 C944.91423024 1581.66280823 951.77944636 1594.35204508 958.64550781 1607.04101562 C964.41500568 1617.70241692 970.19046796 1628.36034995 976 1639 C981.81110198 1649.64252526 987.58793903 1660.30343232 993.35888672 1670.96777344 C996.07122137 1675.97925758 998.78568626 1680.98958758 1001.5 1686 C1004.76279053 1692.022858 1008.02511518 1698.04596574 1011.28515625 1704.0703125 C1016.50878296 1713.7215847 1021.74072607 1723.36809957 1027 1733 C1033.91423024 1745.66280823 1040.77944636 1758.35204508 1047.64550781 1771.04101562 C1053.41500568 1781.70241692 1059.19046796 1792.36034995 1065 1803 C1070.81110198 1813.64252526 1076.58793903 1824.30343232 1082.35888672 1834.96777344 C1085.07122137 1839.97925758 1087.78568626 1844.98958758 1090.5 1850 C1093.76279053 1856.022858 1097.02511518 1862.04596574 1100.28515625 1868.0703125 C1105.53088302 1877.76253614 1110.78452388 1887.45029438 1116.0625 1897.125 C1116.54501221 1898.0104248 1117.02752441 1898.89584961 1117.5246582 1899.80810547 C1120.14349413 1904.61068798 1122.7741537 1909.40643091 1125.41796875 1914.1953125 C1125.97540771 1915.20835449 1126.53284668 1916.22139648 1127.10717773 1917.26513672 C1128.1826593 1919.21919195 1129.26147245 1921.17141813 1130.34399414 1923.12158203 C1130.82344482 1923.99411621 1131.30289551 1924.86665039 1131.796875 1925.765625 C1132.22323242 1926.53680664 1132.64958984 1927.30798828 1133.08886719 1928.10253906 C1134 1930 1134 1930 1134 1932 C1130.88551354 1930.56457818 1128.3181896 1928.82905754 1125.61328125 1926.7265625 C1124.76604492 1926.07268555 1123.91880859 1925.41880859 1123.04589844 1924.74511719 C1122.14387695 1924.04547852 1121.24185547 1923.34583984 1120.3125 1922.625 C1111.68717007 1915.99355439 1102.93750964 1909.60692045 1094.00341797 1903.40039062 C1092.06624856 1902.04630779 1090.14242997 1900.67548102 1088.22265625 1899.296875 C1068.60215335 1885.23717033 1048.36006106 1871.96139148 1028 1859 C1026.91114502 1858.30632324 1026.91114502 1858.30632324 1025.80029297 1857.59863281 C1020.21344738 1854.04455134 1014.61016157 1850.51713545 1009 1847 C1007.82655029 1846.26257568 1007.82655029 1846.26257568 1006.62939453 1845.51025391 C961.38888928 1817.11986078 914.8865225 1790.47169039 867.8059082 1765.27001953 C862.86313295 1762.62356581 857.92886382 1759.9645821 853.01416016 1757.26635742 C840.76992461 1750.54728294 828.44804203 1744.0204299 816 1737.6875 C815.08508789 1737.22086945 814.17017578 1736.75423889 813.22753906 1736.27346802 C795.54942417 1727.25864239 777.81499032 1718.35557915 760.06982422 1709.47366714 C758.01639057 1708.44570522 755.96325183 1707.41715622 753.91015625 1706.38851929 C750.6399728 1704.75045642 747.36859457 1703.11480242 744.09631348 1701.48093414 C742.32239441 1700.59475895 740.5493616 1699.70681034 738.77636719 1698.81878662 C723.92671556 1691.31561749 723.92671556 1691.31561749 708.4375 1685.31640625 C707.7801033 1685.09964737 707.1227066 1684.88288849 706.44538879 1684.65956116 C705.03492004 1684.1955654 703.62329797 1683.73506231 702.21060181 1683.27789307 C699.90976518 1682.53329828 697.61222013 1681.77918745 695.31518555 1681.02294922 C691.96945036 1679.92213455 688.6225801 1678.82487282 685.27490234 1677.72998047 C677.02969511 1675.02986868 668.7989747 1672.28616631 660.56811523 1669.54269409 C657.97248727 1668.67828007 655.3759964 1667.81651091 652.77929688 1666.95532227 C640.42864947 1662.85144573 628.11091437 1658.65349807 615.796875 1654.44140625 C601.37406109 1649.50814994 586.94180169 1644.60410586 572.49609375 1639.73828125 C571.60283764 1639.43740034 570.70958153 1639.13651943 569.78925705 1638.82652092 C565.21876302 1637.28727033 560.64803731 1635.74870909 556.07717896 1634.21054077 C546.3188612 1630.92665132 536.56174783 1627.63918575 526.8046875 1624.3515625 C525.84413767 1624.02792662 524.88358784 1623.70429073 523.89393044 1623.3708477 C505.8235666 1617.28202892 487.76075092 1611.1713023 469.70996094 1605.0246582 C457.96501771 1601.02766259 446.21050644 1597.06125034 434.44392395 1593.12849426 C428.41462084 1591.11326689 422.38726486 1589.09224209 416.36022472 1587.07025814 C411.29550161 1585.37177668 406.22823092 1583.68118841 401.15897751 1581.99627972 C398.0162235 1580.94962729 394.875993 1579.89556185 391.7364006 1578.839468 C390.26465948 1578.3461373 388.79186271 1577.85594371 387.31798172 1577.36904335 C385.29075522 1576.69888804 383.26751653 1576.01782542 381.24487305 1575.33398438 C380.1058403 1574.95383179 378.96680756 1574.5736792 377.79325867 1574.18200684 C372.76642365 1572.05483064 371.2624108 1568.90565041 368.84765625 1564.13671875 C368.55190704 1563.55770309 368.25615784 1562.97868744 367.95144653 1562.38212585 C367.31569701 1561.13664275 366.68241461 1559.88989782 366.05136108 1558.64202881 C364.36730653 1555.31341856 362.66404819 1551.99467138 360.9609375 1548.67578125 C360.61997543 1548.01058472 360.27901337 1547.34538818 359.92771912 1546.66003418 C357.10989942 1541.17788216 354.1758659 1535.76605628 351.1875 1530.375 C345.5042381 1520.09142229 340.16223408 1509.64106547 334.81430054 1499.18084717 C330.31821053 1490.39132877 325.78484016 1481.63704199 321 1473 C315.37344697 1462.84359496 310.09818544 1452.51591581 304.81347656 1442.17919922 C300.31766054 1433.39023216 295.78454171 1424.63650326 291 1416 C285.7943987 1406.60344851 280.88938034 1397.06341713 276 1387.5 C270.6526081 1377.04087751 265.23728048 1366.64117654 259.546875 1356.36328125 C254.63788148 1347.44639713 250.02332518 1338.3815638 245.38494873 1329.32214355 C241.05072032 1320.86149711 236.66754803 1312.44254462 232.0625 1304.125 C226.41745165 1293.92596307 221.119543 1283.55764848 215.81375122 1273.17974854 C211.31784387 1264.3905977 206.7846412 1255.63668284 202 1247 C196.37344697 1236.84359496 191.09818544 1226.51591581 185.81347656 1216.17919922 C181.31766054 1207.39023216 176.78454171 1198.63650326 172 1190 C166.37344697 1179.84359496 161.09818544 1169.51591581 155.81347656 1159.17919922 C151.31766054 1150.39023216 146.78454171 1141.63650326 142 1133 C136.37344697 1122.84359496 131.09818544 1112.51591581 125.81347656 1102.17919922 C121.31766054 1093.39023216 116.78454171 1084.63650326 112 1076 C106.37344697 1065.84359496 101.09818544 1055.51591581 95.81347656 1045.17919922 C91.31766054 1036.39023216 86.78454171 1027.63650326 82 1019 C76.37344697 1008.84359496 71.09818544 998.51591581 65.81347656 988.17919922 C61.31766054 979.39023216 56.78454171 970.63650326 52 962 C46.37344697 951.84359496 41.09818544 941.51591581 35.81347656 931.17919922 C31.31766054 922.39023216 26.78454171 913.63650326 22 905 C16.37344697 894.84359496 11.09818544 884.51591581 5.81347656 874.17919922 C1.31766054 865.39023216 -3.21545829 856.63650326 -8 848 C-13.62655303 837.84359496 -18.90181456 827.51591581 -24.18652344 817.17919922 C-28.68233946 808.39023216 -33.21545829 799.63650326 -38 791 C-43.62655303 780.84359496 -48.90181456 770.51591581 -54.18652344 760.17919922 C-58.68233946 751.39023216 -63.21545829 742.63650326 -68 734 C-73.62655303 723.84359496 -78.90181456 713.51591581 -84.18652344 703.17919922 C-89.11156562 693.55112875 -94.1249427 683.99253778 -99.36743164 674.5324707 C-105.06561822 664.18114124 -110.40101987 653.6390716 -115.77148438 643.11523438 C-116.51287552 641.66398826 -117.25440801 640.21281433 -117.99609375 638.76171875 C-118.34868256 638.07093231 -118.70127136 637.38014587 -119.06454468 636.66842651 C-121.33510364 632.23905493 -123.69430791 627.87524219 -126.20727539 623.57739258 C-127 622 -127 622 -127 620 C-136.29361299 620.37107666 -145.58711681 620.74475593 -154.88049603 621.12164211 C-159.19705575 621.2966176 -163.51364619 621.47073911 -167.83032227 621.64282227 C-172.00607081 621.8093203 -176.18171835 621.97817477 -180.35730934 622.14857674 C-181.94024169 622.21277663 -183.52320714 622.27616642 -185.10620689 622.33868217 C-190.07217951 622.53512418 -195.03603337 622.75789335 -200 623 C-201.26067291 623.0541507 -202.52134583 623.10830139 -203.82022095 623.16409302 C-204.97758759 623.22861664 -206.13495422 623.29314026 -207.32739258 623.35961914 C-208.33200027 623.41082413 -209.33660797 623.46202911 -210.37165833 623.51478577 C-213.34973751 624.06456452 -214.71436794 625.06921297 -217 627 C-218.64791982 627.61525954 -220.31751652 628.17424239 -222 628.6875 C-235.78980801 633.62456243 -245.31311459 643.7377451 -255.36450195 653.95288086 C-257.68276595 656.30769132 -260.01666903 658.64606565 -262.35351562 660.98242188 C-269.30562899 667.96845387 -276.1161524 674.9208919 -282.15161133 682.72729492 C-284.2737502 685.33659234 -286.59117855 687.655239 -289 690 C-293.2244512 694.14070657 -297.25885356 698.36098214 -301.125 702.83984375 C-304.68974364 706.94672549 -308.35607148 710.96345965 -312 715 C-313.50028679 716.66640851 -315.00028872 718.33307353 -316.5 720 C-318.7717129 722.52500493 -321.04435414 725.04913304 -323.3203125 727.5703125 C-326.71872932 731.33737115 -330.1081661 735.10915586 -333.4375 738.9375 C-337.09178862 743.13442081 -340.84744973 747.2365276 -344.59765625 751.34765625 C-346.56941844 753.52460996 -348.51365337 755.71838674 -350.4375 757.9375 C-353.3988351 761.3468858 -356.44152486 764.6779431 -359.5 768 C-363.14414329 771.95862186 -366.73913717 775.9517676 -370.265625 780.015625 C-373.79500714 784.05374691 -377.40634226 788.01914681 -381 792 C-382.50028679 793.66640851 -384.00028872 795.33307353 -385.5 797 C-387.7717129 799.52500493 -390.04435414 802.04913304 -392.3203125 804.5703125 C-395.69912708 808.31564256 -399.06895965 812.06518207 -402.375 815.875 C-405.82716078 819.84097076 -409.38750881 823.70517646 -412.94824219 827.57324219 C-416.10697965 831.0102442 -419.20638336 834.49021321 -422.265625 838.015625 C-425.79500714 842.05374691 -429.40634226 846.01914681 -433 850 C-434.50028679 851.66640851 -436.00028872 853.33307353 -437.5 855 C-439.7717129 857.52500493 -442.04435414 860.04913304 -444.3203125 862.5703125 C-447.69912708 866.31564256 -451.06895965 870.06518207 -454.375 873.875 C-457.82716078 877.84097076 -461.38750881 881.70517646 -464.94824219 885.57324219 C-468.10697965 889.0102442 -471.20638336 892.49021321 -474.265625 896.015625 C-477.79500714 900.05374691 -481.40634226 904.01914681 -485 908 C-486.50028679 909.66640851 -488.00028872 911.33307353 -489.5 913 C-491.7717129 915.52500493 -494.04435414 918.04913304 -496.3203125 920.5703125 C-499.71872932 924.33737115 -503.1081661 928.10915586 -506.4375 931.9375 C-518.04188436 945.24602472 -530.23433716 957.42128642 -543.984375 968.51953125 C-547.54670352 971.44968489 -551.02467961 974.46765967 -554.5 977.5 C-559.65559878 981.99525353 -564.87511636 986.38623836 -570.19140625 990.69140625 C-573.50298593 993.41344185 -576.7531 996.20143139 -580 999 C-585.01171583 1003.31820272 -590.08218579 1007.54906846 -595.21875 1011.71875 C-598.36383999 1014.29843056 -601.46472926 1016.92639674 -604.5625 1019.5625 C-609.1603844 1023.47113925 -613.81456145 1027.2923258 -618.54296875 1031.04296875 C-623.0678414 1034.64704061 -627.52825366 1038.33038895 -632 1042 C-635.6639525 1045.00333076 -639.33083057 1048.00304481 -643 1051 C-643.59973633 1051.49016602 -644.19947266 1051.98033203 -644.81738281 1052.48535156 C-652.39280578 1058.67302719 -659.99753036 1064.81453878 -667.70800781 1070.83325195 C-672.20624925 1074.35331044 -676.6394647 1077.9485822 -681.0625 1081.5625 C-686.82043935 1086.26164189 -692.64072941 1090.8523244 -698.55078125 1095.359375 C-701.82073216 1097.85423353 -705.06087977 1100.38622668 -708.30078125 1102.91992188 C-717.92396135 1110.44062826 -727.66585977 1117.79231183 -737.45458984 1125.09570312 C-740.01299625 1127.00972288 -742.56414208 1128.93303411 -745.11328125 1130.859375 C-754.93536019 1138.27518127 -764.85074179 1145.51711815 -774.9453125 1152.55712891 C-776.99497933 1153.99647432 -779.03038625 1155.45396757 -781.0625 1156.91796875 C-837.39695628 1197.39621238 -837.39695628 1197.39621238 -858 1197 C-856.32517231 1190.89664021 -853.22645628 1185.62904001 -850.1875 1180.125 C-849.0050665 1177.96361925 -847.8227789 1175.80215868 -846.640625 1173.640625 C-846.03541016 1172.53783203 -845.43019531 1171.43503906 -844.80664062 1170.29882812 C-841.99689151 1165.16837813 -839.21852626 1160.02105646 -836.4375 1154.875 C-831.81532405 1146.33674657 -827.17274473 1137.80981089 -822.51928711 1129.28857422 C-818.83194925 1122.53339546 -815.16268545 1115.76857311 -811.5 1109 C-806.85670838 1100.41928532 -802.1959884 1091.84834827 -797.51733398 1083.28686523 C-794.93790656 1078.5637616 -792.36882249 1073.83541885 -789.81640625 1069.09765625 C-784.45564711 1059.151878 -779.03650601 1049.25144107 -773.4375 1039.4375 C-768.58896615 1030.93462032 -764.00033981 1022.32605143 -759.51928711 1013.62475586 C-755.49146271 1005.84335597 -751.20548165 998.22977315 -746.85546875 990.625 C-743.0799743 983.99310521 -739.49351015 977.28423079 -736 970.5 C-731.49339827 961.74839347 -726.74272543 953.16899267 -721.85546875 944.625 C-718.0799743 937.99310521 -714.49351015 931.28423079 -711 924.5 C-706.49339827 915.74839347 -701.74272543 907.16899267 -696.85546875 898.625 C-693.0799743 891.99310521 -689.49351015 885.28423079 -686 878.5 C-681.49339827 869.74839347 -676.74272543 861.16899267 -671.85546875 852.625 C-668.0799743 845.99310521 -664.49351015 839.28423079 -661 832.5 C-656.49339827 823.74839347 -651.74272543 815.16899267 -646.85546875 806.625 C-643.07997066 799.99309882 -639.49366396 793.28415438 -636 786.5 C-632.11755791 778.96420401 -628.09091138 771.54180695 -623.875 764.1875 C-618.36529338 754.56908795 -613.15566451 744.81073463 -608 735 C-602.35227796 724.25292713 -596.58959559 713.60061588 -590.55078125 703.06640625 C-586.337636 695.68540241 -582.40864164 688.17720906 -578.51806641 680.62231445 C-574.49057051 672.84177434 -570.20502818 665.22898037 -565.85546875 657.625 C-562.07997066 650.99309882 -558.49366396 644.28415438 -555 637.5 C-551.11755791 629.96420401 -547.09091138 622.54180695 -542.875 615.1875 C-537.36529338 605.56908795 -532.15566451 595.81073463 -527 586 C-521.35227796 575.25292713 -515.58959559 564.60061588 -509.55078125 554.06640625 C-505.337636 546.68540241 -501.40864164 539.17720906 -497.51806641 531.62231445 C-493.49057051 523.84177434 -489.20502818 516.22898037 -484.85546875 508.625 C-481.07997066 501.99309882 -477.49366396 495.28415438 -474 488.5 C-470.11755791 480.96420401 -466.09091138 473.54180695 -461.875 466.1875 C-456.36529338 456.56908795 -451.15566451 446.81073463 -446 437 C-440.35227796 426.25292713 -434.58959559 415.60061588 -428.55078125 405.06640625 C-424.337636 397.68540241 -420.40864164 390.17720906 -416.51806641 382.62231445 C-412.49057051 374.84177434 -408.20502818 367.22898037 -403.85546875 359.625 C-400.07997066 352.99309882 -396.49366396 346.28415438 -393 339.5 C-389.11755791 331.96420401 -385.09091138 324.54180695 -380.875 317.1875 C-375.36529338 307.56908795 -370.15566451 297.81073463 -365 288 C-359.35227796 277.25292713 -353.58959559 266.60061588 -347.55078125 256.06640625 C-343.337636 248.68540241 -339.40864164 241.17720906 -335.51806641 233.62231445 C-331.49057051 225.84177434 -327.20502818 218.22898037 -322.85546875 210.625 C-319.07997066 203.99309882 -315.49366396 197.28415438 -312 190.5 C-308.11755791 182.96420401 -304.09091138 175.54180695 -299.875 168.1875 C-294.36529338 158.56908795 -289.15566451 148.81073463 -284 139 C-278.35227796 128.25292713 -272.58959559 117.60061588 -266.55078125 107.06640625 C-262.34057703 99.69055481 -258.41291827 92.1882754 -254.52685547 84.63769531 C-250.92861894 77.68339983 -247.13710197 70.85903209 -243.25 64.0625 C-237.81900663 54.55706535 -232.77595151 44.93327213 -228.07177734 35.04980469 C-227.4539148 33.75213203 -226.83223412 32.45626967 -226.20654297 31.16235352 C-225.3750255 29.44187076 -224.55613063 27.71530313 -223.73828125 25.98828125 C-221.82831629 22.70485834 -219.7769519 20.58625992 -217 18 C-216.51813232 17.41468506 -216.03626465 16.82937012 -215.53979492 16.22631836 C-210.5290838 10.39201196 -205.55069734 9.43833293 -198.125 8.375 C-196.91448975 8.18244629 -195.70397949 7.98989258 -194.45678711 7.79150391 C-191.04656152 7.2662659 -187.635265 6.77398901 -184.21710205 6.3046875 C-181.94584307 5.99255743 -179.67582179 5.67228582 -177.40576172 5.3515625 C-119.06163616 -2.80243226 -58.7431925 -5.53585015 0 0 Z " fill="#FFFFFF" transform="translate(1862,143)"/>
<path d="M0 0 C0.99918457 0.14985352 1.99836914 0.29970703 3.02783203 0.45410156 C35.56711372 5.48314231 68.56418401 15.26593821 94 37 C94.79148437 37.63035156 95.58296875 38.26070312 96.3984375 38.91015625 C119.79633425 58.24420778 130.46836235 88.31503089 133.75 117.625 C133.86084676 119.4151751 133.94106405 121.20736494 134 123 C134.0515625 124.27101563 134.103125 125.54203125 134.15625 126.8515625 C135.37763883 171.23037244 118.40674535 213.9427691 92 249 C91.29101562 249.94230469 90.58203125 250.88460938 89.8515625 251.85546875 C77.79703325 267.32954814 63.55700375 282.06473257 48 294 C47.42056641 294.45052734 46.84113281 294.90105469 46.24414062 295.36523438 C-8.0629579 337.51654712 -73.9544264 361.15279662 -140.66579056 375.17323685 C-161.5928021 379.58305077 -182.39972412 384.4812079 -203.20445251 389.43055725 C-206.18493031 390.13925013 -209.16572126 390.84661163 -212.14660645 391.55358887 C-256.23664186 402.01137112 -300.28948505 412.62268399 -344.3155899 423.34626007 C-346.9979799 423.99950804 -349.68046651 424.65235794 -352.36297607 425.30511475 C-362.5715112 427.78966107 -372.7782093 430.28156164 -382.9822998 432.78430176 C-386.05593051 433.53810156 -389.13006326 434.28979214 -392.20471191 435.03942871 C-414.56948726 440.49544848 -436.8737016 446.15253256 -458.5625 453.9375 C-459.18731262 454.16065887 -459.81212524 454.38381775 -460.45587158 454.61373901 C-503.96639413 470.20773076 -546.13663884 489.73606985 -588.06542969 509.10662842 C-589.91420152 509.96037884 -591.76372342 510.81250448 -593.61328125 511.66455078 C-623.70387359 525.52990725 -653.62306158 539.76018551 -683.39442635 554.29759598 C-688.25223735 556.66740983 -693.11650271 559.02363323 -697.98420715 561.37304688 C-717.05775727 570.58370253 -736.04906252 579.94871006 -754.99037313 589.42802382 C-758.76568321 591.31698338 -762.54200384 593.20392108 -766.31814575 595.09121704 C-772.63289749 598.24769561 -778.94682647 601.40581495 -785.26025391 604.56494141 C-792.49898479 608.18704171 -799.73916919 611.80622374 -806.98008907 615.42394578 C-813.28407853 618.573655 -819.5872709 621.72495506 -825.88982594 624.87753356 C-829.61692602 626.74185205 -833.344273 628.60567148 -837.07235336 630.46802902 C-851.11813947 637.4854188 -865.15621046 644.50529319 -879.01101685 651.89541626 C-882.80917287 653.91602607 -886.64763694 655.85193318 -890.49519157 657.7765255 C-900.31616191 662.69803345 -909.01119488 668.7255015 -917.76611328 675.32666016 C-921.47299405 678.10337718 -925.23897014 680.7973586 -929 683.5 C-930.50028753 684.58293511 -932.00028758 685.66626859 -933.5 686.75 C-942.5 693.25 -951.5 699.75 -960.5 706.25 C-961.24282227 706.7864917 -961.98564453 707.3229834 -962.75097656 707.87573242 C-964.24768701 708.95667191 -965.74443168 710.03756401 -967.24121094 711.1184082 C-971.04182637 713.8629754 -974.84180298 716.60841966 -978.640625 719.35546875 C-986.27343671 724.87368746 -993.91147309 730.38368387 -1001.58691406 735.8425293 C-1003.84375197 737.44936744 -1006.0787355 739.06184415 -1008.2578125 740.7734375 C-1010 742 -1010 742 -1012 742 C-1010.38762592 736.07818974 -1007.37089023 731.13868624 -1004.3125 725.875 C-999.1590428 716.88976496 -994.17833801 707.83017791 -989.3125 698.6875 C-984.11468609 688.93236032 -978.83536863 679.23094072 -973.44042969 669.58349609 C-970.34010456 664.02287907 -967.26420557 658.44870934 -964.1875 652.875 C-963.84411591 652.25306763 -963.50073181 651.63113525 -963.14694214 650.99035645 C-957.88552451 641.45738608 -952.68036103 631.89517161 -947.50585938 622.31469727 C-944.04718567 615.91668798 -940.54725412 609.54388404 -937.00488281 603.19189453 C-932.41345541 594.95817669 -927.86372736 586.70150825 -923.31201172 578.44580078 C-922.61555991 577.18261718 -921.91910809 575.91943359 -921.22265625 574.65625 C-920.70037445 573.70889481 -920.70037445 573.70889481 -920.1675415 572.74240112 C-917.73842349 568.33700517 -915.30556734 563.93368822 -912.87109375 559.53125 C-906.02835165 547.15353711 -899.22571576 534.75627775 -892.50439453 522.31201172 C-888.64768784 515.17764383 -884.73017268 508.079704 -880.78125 500.99609375 C-877.2341498 494.63116657 -873.70938388 488.25390283 -870.1875 481.875 C-869.84429718 481.25343018 -869.50109436 480.63186035 -869.14749146 479.99145508 C-863.88590103 470.45811354 -858.68055504 460.89553081 -853.50585938 451.31469727 C-850.04718567 444.91668798 -846.54725412 438.54388404 -843.00488281 432.19189453 C-838.41345541 423.95817669 -833.86372736 415.70150825 -829.31201172 407.44580078 C-828.61555991 406.18261718 -827.91910809 404.91943359 -827.22265625 403.65625 C-826.87446838 403.02467987 -826.52628052 402.39310974 -826.1675415 401.74240112 C-823.73842349 397.33700517 -821.30556734 392.93368822 -818.87109375 388.53125 C-812.02835165 376.15353711 -805.22571576 363.75627775 -798.50439453 351.31201172 C-795.0462281 344.91488755 -791.54675733 338.54299322 -788.00488281 332.19189453 C-783.41345541 323.95817669 -778.86372736 315.70150825 -774.31201172 307.44580078 C-773.61555991 306.18261718 -772.91910809 304.91943359 -772.22265625 303.65625 C-771.87446838 303.02467987 -771.52628052 302.39310974 -771.1675415 301.74240112 C-769.07930991 297.95522942 -766.98879649 294.16932975 -764.89598083 290.38468933 C-763.53666893 287.92646522 -762.1781139 285.46782311 -760.81954956 283.00918579 C-760.1502716 281.7985064 -759.48061652 280.5880354 -758.81057739 279.3777771 C-755.25236049 272.95035051 -751.7253122 266.50920697 -748.28125 260.01953125 C-747.69496826 258.91907471 -747.10868652 257.81861816 -746.50463867 256.68481445 C-745.41094171 254.62634138 -744.32463499 252.5639171 -743.24731445 250.49682617 C-738.41195728 241.40686595 -732.63660696 236.86653016 -724 231.5 C-723.02305176 230.88616455 -722.04610352 230.2723291 -721.03955078 229.63989258 C-718.03081141 227.75270697 -715.0160735 225.87543663 -712 224 C-710.28903034 222.93104105 -708.57809121 221.86203324 -706.8671875 220.79296875 C-701.59207198 217.50584774 -696.29921214 214.24810532 -691 211 C-689.42653809 210.03537842 -689.42653809 210.03537842 -687.82128906 209.05126953 C-670.58073789 198.49803872 -653.21666117 188.16928836 -635.74023438 178.01171875 C-634.03727382 177.02166985 -632.33503492 176.03037997 -630.6328125 175.0390625 C-614.20570933 165.47934688 -597.65753758 156.15210699 -581 147 C-579.99259766 146.44602539 -578.98519531 145.89205078 -577.94726562 145.32128906 C-562.03933962 136.59132967 -545.9723393 128.17948979 -529.81311035 119.9263916 C-528.03586618 119.01832548 -526.25962163 118.10830378 -524.48339844 117.19824219 C-494.41495144 101.82879327 -463.74056696 88.17903105 -432.03466797 76.5390625 C-425.31926696 74.06786625 -418.72555465 71.47736389 -412.203125 68.53125 C-403.2646419 64.53007056 -394.06864691 61.48478755 -384.75 58.5 C-383.8370517 58.20552979 -382.92410339 57.91105957 -381.98348999 57.60766602 C-308.55943004 33.96765022 -233.37927462 15.08975094 -157 4 C-156.27500305 3.89427673 -155.5500061 3.78855347 -154.80303955 3.67962646 C-144.89124431 2.24326267 -134.96184329 1.03746893 -125 0 C-123.95912231 -0.11118164 -123.95912231 -0.11118164 -122.8972168 -0.22460938 C-82.54123523 -4.5155555 -40.22053784 -6.1918029 0 0 Z " fill="#FFFFFF" transform="translate(1635,1322)"/>
</svg>
