<?xml version="1.0" standalone="no"?>
<!DOCTYPE svg PUBLIC "-//W3C//DTD SVG 20010904//EN"
 "http://www.w3.org/TR/2001/REC-SVG-20010904/DTD/svg10.dtd">
<svg version="1.0" xmlns="http://www.w3.org/2000/svg"
 width="1024.000000pt" height="1024.000000pt" viewBox="0 0 1024.000000 1024.000000"
 preserveAspectRatio="xMidYMid meet">

<g transform="translate(0.000000,1024.000000) scale(0.100000,-0.100000)"
fill="#000000" stroke="none">
<path d="M1715 6434 c-11 -2 -44 -9 -73 -15 -64 -13 -183 -89 -230 -148 -43
-54 -89 -153 -102 -220 -14 -77 -14 -1653 1 -1740 44 -258 314 -442 554 -377
89 24 41 -3 922 523 271 162 515 311 541 332 175 139 227 443 109 644 -47 79
-135 148 -378 294 -129 77 -362 218 -519 313 -512 311 -584 353 -630 371 -46
17 -159 31 -195 23z m570 -513 c259 -156 486 -293 505 -305 19 -13 114 -69
210 -126 201 -118 252 -163 270 -241 15 -62 9 -142 -14 -191 -34 -70 -100
-120 -388 -293 -155 -93 -380 -229 -498 -301 -308 -187 -496 -295 -544 -311
-113 -40 -247 33 -291 158 -22 62 -22 1676 0 1738 36 103 125 165 225 158 52
-4 84 -21 525 -286z"/>
<path d="M1830 5882 c-42 -19 -71 -48 -91 -90 l-23 -46 3 -585 c1 -338 6 -602
12 -623 26 -100 169 -107 196 -10 5 15 8 267 8 560 0 351 3 531 10 528 6 -2
141 -84 300 -183 160 -98 318 -196 353 -217 34 -21 62 -40 62 -44 0 -4 -120
-81 -267 -172 -146 -91 -280 -179 -299 -196 -54 -50 -57 -113 -7 -160 36 -34
83 -31 152 8 327 184 685 407 718 446 17 20 23 40 23 74 0 58 -25 90 -112 143
-35 21 -167 103 -295 181 -127 79 -275 170 -330 202 -54 33 -147 89 -208 126
-89 53 -117 66 -150 65 -22 0 -47 -3 -55 -7z"/>
<path d="M4217 5679 c-7 -17 -91 -234 -187 -483 l-176 -451 90 -3 c63 -2 92 1
97 10 4 7 25 59 46 115 l37 103 200 -2 199 -3 42 -110 43 -110 96 -3 c53 -1
96 -1 96 1 0 2 -59 154 -131 338 -72 184 -156 400 -187 481 l-57 148 -98 0
-99 0 -11 -31z m253 -566 c0 -1 -66 -3 -146 -3 l-146 0 6 26 c4 15 37 103 73
196 l66 168 74 -191 c40 -106 73 -194 73 -196z"/>
<path d="M7970 5195 l0 -455 75 0 75 0 0 455 0 455 -75 0 -75 0 0 -455z"/>
<path d="M5865 5471 c-94 -25 -199 -111 -242 -200 -25 -51 -28 -66 -28 -166 0
-104 2 -114 33 -177 110 -223 417 -272 607 -97 65 60 98 142 103 259 3 79 0
104 -18 152 -30 80 -104 159 -187 200 -56 27 -78 32 -152 35 -47 1 -99 -1
-116 -6z m192 -173 c127 -69 152 -247 48 -354 -62 -65 -132 -79 -215 -43 -77
33 -120 108 -120 207 1 163 151 262 287 190z"/>
<path d="M7205 5471 c-115 -31 -185 -96 -209 -193 -7 -30 -7 -30 110 -43 49
-5 51 -4 65 27 22 50 59 71 124 71 84 0 129 -40 137 -123 l3 -35 -170 -5
c-157 -5 -173 -7 -213 -30 -56 -32 -83 -76 -89 -149 -8 -81 17 -152 72 -207
50 -50 92 -64 190 -64 73 0 155 28 184 63 20 25 31 21 31 -13 l0 -30 86 0 86
0 -4 263 -3 262 -28 57 c-30 61 -80 108 -144 134 -43 18 -182 27 -228 15z
m230 -458 c-13 -93 -83 -153 -177 -153 -50 0 -62 4 -90 29 -28 25 -33 36 -33
76 0 39 5 51 28 71 26 23 35 24 154 24 l125 0 -7 -47z"/>
<path d="M4845 5452 c2 -6 59 -87 126 -178 l121 -166 -33 -47 c-18 -25 -77
-106 -131 -180 -54 -73 -98 -136 -98 -140 0 -3 45 -5 100 -3 l99 3 84 115 84
114 83 -114 83 -115 104 -3 c75 -2 102 0 99 9 -3 6 -58 85 -124 175 -65 89
-122 169 -126 175 -4 8 14 41 47 85 140 189 197 269 197 276 0 4 -46 6 -102 4
l-103 -3 -74 -105 c-40 -57 -77 -104 -82 -104 -4 0 -39 47 -76 104 l-68 104
-108 3 c-83 3 -106 1 -102 -9z"/>
<path d="M6464 5461 c-2 -2 -4 -166 -4 -363 l0 -358 90 0 90 0 0 216 c0 233 4
256 56 305 22 21 37 24 102 26 l77 2 3 92 3 92 -64 -5 c-68 -6 -116 -26 -159
-66 l-28 -26 0 41 0 41 -81 4 c-44 2 -83 1 -85 -1z"/>
<path d="M8535 5411 c-40 -10 -88 -36 -104 -55 -21 -25 -27 -19 -23 19 l4 35
-76 0 -76 0 0 -335 0 -335 74 0 75 0 3 223 c3 214 4 223 26 255 37 51 81 68
170 64 21 -2 45 -13 70 -36 l37 -34 3 -236 3 -236 75 0 74 0 0 223 c0 247 -7
293 -59 364 -17 23 -49 50 -76 63 -50 24 -149 35 -200 21z"/>
<path d="M9195 5402 c-156 -54 -245 -191 -232 -357 12 -161 117 -275 282 -306
64 -12 166 1 216 27 46 23 99 74 120 115 10 21 19 40 19 42 0 2 -28 17 -62 33
-45 21 -62 26 -66 16 -20 -59 -112 -108 -188 -99 -156 17 -228 222 -121 344
40 45 82 63 148 63 64 0 115 -24 142 -66 24 -36 26 -36 105 -3 23 10 42 22 42
27 0 5 -14 30 -32 57 -34 51 -99 99 -158 115 -54 15 -160 11 -215 -8z"/>
</g>
</svg>
