<svg width="180" height="40" viewBox="0 0 180 40" fill="none" xmlns="http://www.w3.org/2000/svg">
  <path d="M20 0C8.954 0 0 8.954 0 20C0 31.046 8.954 40 20 40C31.046 40 40 31.046 40 20C40 8.954 31.046 0 20 0ZM20 8C26.627 8 32 13.373 32 20C32 26.627 26.627 32 20 32C13.373 32 8 26.627 8 20C8 13.373 13.373 8 20 8Z" fill="#0ea5e9"/>
  <path d="M20 12C15.582 12 12 15.582 12 20C12 24.418 15.582 28 20 28C24.418 28 28 24.418 28 20C28 15.582 24.418 12 20 12ZM20 16C22.209 16 24 17.791 24 20C24 22.209 22.209 24 20 24C17.791 24 16 22.209 16 20C16 17.791 17.791 16 20 16Z" fill="#1e293b"/>
  <path d="M50 12H54.5L62 28H57L55.5 24.5H49L47.5 28H42.5L50 12ZM54 21L52.5 17.5L51 21H54Z" fill="#1e293b"/>
  <path d="M64 12H68.5L72.5 19.5L76.5 12H81L74.5 23V28H70.5V23L64 12Z" fill="#1e293b"/>
  <path d="M82 12H86.5V16.5H91.5V12H96V28H91.5V20.5H86.5V28H82V12Z" fill="#1e293b"/>
  <path d="M98 12H111.5V16H102.5V18H110V21.5H102.5V24H112V28H98V12Z" fill="#1e293b"/>
  <path d="M114 12H118.5V24H126.5V28H114V12Z" fill="#1e293b"/>
  <path d="M128 12H141.5V16H132.5V18H140V21.5H132.5V24H142V28H128V12Z" fill="#1e293b"/>
  <path d="M144 12H148.5V16.5H153.5V12H158V28H153.5V20.5H148.5V28H144V12Z" fill="#1e293b"/>
</svg>